<svg width="20" height="20" viewBox="0 0 20 20" fill="none" xmlns="http://www.w3.org/2000/svg">
<g clip-path="url(#clip0)">
<path d="M19.4702 9.99994C19.4702 15.2799 15.2102 19.5599 9.9602 19.5599C4.7102 19.5599 0.450195 15.2799 0.450195 9.99994C0.450195 4.71994 4.7102 0.439941 9.9602 0.439941C15.2102 0.439941 19.4702 4.71994 19.4702 9.99994Z" fill="#7C89E4" stroke="#7C89E4" stroke-width="0.889"/>
<path d="M9.99984 7.15997C10.6405 7.15997 11.1598 6.64062 11.1598 5.99997C11.1598 5.35932 10.6405 4.83997 9.99984 4.83997C9.35919 4.83997 8.83984 5.35932 8.83984 5.99997C8.83984 6.64062 9.35919 7.15997 9.99984 7.15997Z" fill="white"/>
<path d="M10.8596 9.23999H9.13965V15.75H10.8596V9.23999Z" fill="white"/>
</g>
<defs>
<clipPath id="clip0">
<rect width="19.92" height="20" fill="white"/>
</clipPath>
</defs>
</svg>
