<svg width="20" height="20" viewBox="0 0 20 20" fill="none" xmlns="http://www.w3.org/2000/svg">
<circle cx="10" cy="10" r="9.5" stroke="white"/>
<path d="M13.3461 10C13.3461 12.7161 12.9218 15.1525 12.253 16.8916C11.9179 17.7628 11.5311 18.4335 11.1272 18.8778C10.7233 19.3219 10.3417 19.5 9.99999 19.5C9.65829 19.5 9.27666 19.3219 8.87282 18.8778C8.46885 18.4335 8.08211 17.7628 7.74702 16.8916C7.07814 15.1525 6.65384 12.7161 6.65384 10C6.65384 7.2839 7.07814 4.84751 7.74702 3.10842C8.08211 2.23721 8.46885 1.56648 8.87282 1.12223C9.27666 0.678131 9.65829 0.5 9.99999 0.5C10.3417 0.5 10.7233 0.67813 11.1272 1.12223C11.5311 1.56648 11.9179 2.23721 12.253 3.10842C12.9218 4.84751 13.3461 7.2839 13.3461 10Z" stroke="white"/>
<line y1="9.5" x2="20" y2="9.5" stroke="white"/>
</svg>
