<svg width="415" height="81" viewBox="0 0 415 81" fill="none" xmlns="http://www.w3.org/2000/svg">
<path d="M94.8 21.4999C95.9 19.7999 97.5 18.9999 99.8 18.9999C102 18.9999 103.7 19.4999 104.8 20.4999C105.9 21.4999 106.5 23.0999 106.5 25.3999H115.6C115.2 21.1999 113.6 17.8999 110.9 15.4999C108.1 13.0999 104.5 11.8999 99.9 11.8999C96.7 11.8999 93.9 12.6999 91.5 14.1999C89.1 15.6999 87.2 17.7999 85.9 20.5999C84.6 23.3999 84 26.5999 84 30.2999V31.9999C84 37.8999 85.4 42.3999 88.3 45.6999C91.1 48.8999 95 50.4999 100 50.4999C103 50.4999 105.7 49.8999 108 48.7999C110.3 47.6999 112.2 46.0999 113.5 44.0999C114.8 42.0999 115.5 39.7999 115.6 37.0999H106.6C106.5 39.1999 105.9 40.7999 104.8 41.7999C103.7 42.7999 102.1 43.2999 100 43.2999C97.5 43.2999 95.8 42.3999 94.8 40.6999C93.8 38.9999 93.3 36.0999 93.3 32.0999V29.3999C93.2 25.7999 93.7 23.0999 94.8 21.4999Z" fill="white"/>
<path d="M116.8 19.3999H127.9V49.9999H136.9V19.3999H148.2V12.3999H116.8V19.3999Z" fill="white"/>
<path d="M72.3004 14.0998C69.8004 12.5998 67.0004 11.7998 63.8004 11.7998C60.6004 11.7998 57.7004 12.5998 55.2004 14.0998C52.7004 15.5998 50.7004 17.7998 49.4004 20.5998C48.1004 23.3998 47.4004 26.6998 47.4004 30.2998V32.3998C47.5004 35.9998 48.2004 39.0998 49.6004 41.7998C51.0004 44.4998 52.9004 46.6998 55.4004 48.0998C57.9004 49.5998 60.7004 50.2998 63.9004 50.2998C67.1004 50.2998 70.0004 49.4998 72.5004 47.9998C75.0004 46.4998 77.0004 44.2998 78.3004 41.4998C79.7004 38.6998 80.3004 35.3998 80.3004 31.7998V30.0998C80.3004 26.4998 79.6004 23.2998 78.2004 20.4998C76.8004 17.7998 74.8004 15.5998 72.3004 14.0998ZM71.0004 32.0998C71.0004 35.7998 70.4004 38.5998 69.1004 40.4998C67.9004 42.3998 66.1004 43.3998 63.8004 43.3998C61.4004 43.3998 59.6004 42.3998 58.3004 40.3998C57.1004 38.3998 56.5004 35.5998 56.5004 31.8998V29.0998C56.8004 22.2998 59.2004 18.8998 63.7004 18.8998C66.0004 18.8998 67.8004 19.8998 69.1004 21.7998C70.4004 23.6998 71.0004 26.5998 71.0004 30.2998V32.0998Z" fill="white"/>
<path d="M331.6 36.0999V12.3999H322.5V49.9999H331.6L345.1 26.2999V49.9999H354.2V12.3999H345.1L331.6 36.0999Z" fill="white"/>
<path d="M262.8 21.4999C263.9 19.7999 265.5 18.9999 267.8 18.9999C270 18.9999 271.7 19.4999 272.8 20.4999C273.9 21.4999 274.5 23.0999 274.5 25.3999H283.5C283.1 21.1999 281.5 17.8999 278.8 15.4999C276 13.0999 272.4 11.8999 267.8 11.8999C264.6 11.8999 261.8 12.6999 259.4 14.1999C257 15.6999 255.1 17.7999 253.8 20.5999C252.5 23.3999 251.9 26.5999 251.9 30.2999V31.9999C251.9 37.8999 253.3 42.3999 256.2 45.6999C259 48.8999 262.9 50.4999 267.9 50.4999C270.9 50.4999 273.6 49.8999 275.9 48.7999C278.2 47.6999 280.1 46.0999 281.4 44.0999C282.7 42.0999 283.4 39.7999 283.5 37.0999H274.5C274.4 39.1999 273.8 40.7999 272.7 41.7999C271.6 42.7999 270 43.2999 267.9 43.2999C265.4 43.2999 263.7 42.3999 262.7 40.6999C261.7 38.9999 261.2 36.0999 261.2 32.0999V29.3999C261.2 25.7999 261.7 23.0999 262.8 21.4999Z" fill="white"/>
<path d="M318.8 12.3999H307.9L300.6 26.8999H297.1V12.3999H288.1V49.9999H297.1V35.0999H301.4L309.4 49.9999H320.1L308.5 29.6999L318.8 12.3999Z" fill="white"/>
<path d="M241.8 30.7998C243.5 30.0998 244.9 29.0998 245.8 27.6998C246.7 26.2998 247.1 24.6998 247.1 22.6998C247.1 19.2998 245.8 16.6998 243.3 14.9998C240.8 13.1998 237.1 12.2998 232.3 12.2998H218.8V49.9998H234.1C238.7 49.9998 242.1 48.9998 244.5 47.1998C246.8 45.2998 248 42.5998 248 38.8998C248 36.8998 247.5 35.0998 246.4 33.6998C245.3 32.2998 243.8 31.2998 241.8 30.7998ZM227.9 19.3998H232.3C234.3 19.3998 235.8 19.7998 236.7 20.4998C237.6 21.1998 238.1 22.2998 238.1 23.8998C238.1 25.2998 237.7 26.2998 236.8 26.9998C236 27.6998 234.5 28.0998 232.6 28.0998H227.9V19.3998ZM237.6 41.8998C236.7 42.5998 235.5 42.9998 233.8 42.9998H227.9V33.9998H234.3C237.4 33.9998 239 35.5998 239 38.6998C238.9 40.0998 238.5 41.0998 237.6 41.8998Z" fill="white"/>
<path d="M187.9 49.9999H213.9V42.9999H197V33.9999H211.3V27.2999H197V19.3999H213.9V12.3999H187.9V49.9999Z" fill="white"/>
<path d="M174.5 14.0998C172 12.5998 169.2 11.7998 166 11.7998C162.8 11.7998 159.9 12.5998 157.4 14.0998C154.9 15.5998 152.9 17.7998 151.6 20.5998C150.3 23.3998 149.6 26.6998 149.6 30.2998V32.3998C149.7 35.9998 150.4 39.0998 151.8 41.7998C153.2 44.4998 155.1 46.6998 157.6 48.0998C160.1 49.5998 162.9 50.2998 166.1 50.2998C169.3 50.2998 172.2 49.4998 174.7 47.9998C177.2 46.4998 179.2 44.2998 180.5 41.4998C181.9 38.6998 182.5 35.3998 182.5 31.7998V30.0998C182.5 26.4998 181.8 23.2998 180.4 20.4998C179 17.7998 177 15.5998 174.5 14.0998ZM173.2 32.0998C173.2 35.7998 172.6 38.5998 171.3 40.4998C170.1 42.3998 168.3 43.3998 166 43.3998C163.6 43.3998 161.8 42.3998 160.5 40.3998C159.2 38.3998 158.7 35.5998 158.7 31.8998V29.0998C159 22.2998 161.4 18.8998 165.9 18.8998C168.2 18.8998 170 19.8998 171.3 21.7998C172.6 23.6998 173.2 26.5998 173.2 30.2998V32.0998Z" fill="white"/>
<path d="M45.1 53.7998H6V60.7998H45.1V53.7998Z" fill="#7C89E4"/>
<path d="M40.9 42.9999V12.3999H15.2L14 28.4999C13.6 32.6999 13 35.9999 12.2 38.2999C11.4 40.4999 10.2 42.0999 8.9 43.0999H6V50.0999H6.5H15.3H15.5H35.6H35.8H44.5H45.1V43.0999H40.9V42.9999ZM31.8 42.9999H19.1C21.2 39.5999 22.5 34.8999 23.1 28.7999L23.8 19.3999H31.8V42.9999Z" fill="white"/>
<path d="M382.8 12.3999L369.3 36.0999V12.3999H360.2V49.9999H369.3L382.8 26.2999V49.9999H391.9V12.3999H382.8Z" fill="white"/>
<path d="M391.9 1.5H360.2V8.5H391.9V1.5Z" fill="#7C89E4"/>
<path d="M48.5595 74.5407C48.9663 74.5407 49.3731 74.437 49.6782 74.1259C49.9833 73.9185 50.085 73.5037 50.085 73.1926H51.7122C51.7122 73.7111 51.5088 74.1259 51.3054 74.5407C51.0003 74.9556 50.6952 75.2667 50.1867 75.5778C49.6782 75.7852 49.1697 75.9926 48.6612 75.9926C47.5425 75.9926 46.7289 75.6815 46.1187 74.9556C45.4068 74.2296 45 73.1926 45 71.9482V71.7407C45 70.6 45.3051 69.563 45.9153 68.837C46.5255 68.1111 47.4408 67.8 48.4578 67.8C49.3731 67.8 50.085 68.1111 50.6952 68.6296C51.3054 69.1481 51.6105 69.8741 51.6105 70.8074H49.9833C49.9833 70.3926 49.7799 69.9778 49.5765 69.6667C49.2714 69.3556 48.9663 69.2519 48.4578 69.2519C47.9493 69.2519 47.4408 69.4593 47.1357 69.8741C46.8306 70.2889 46.7289 70.9111 46.6272 71.7407V72.0519C46.6272 72.8815 46.7289 73.5037 47.034 73.9185C47.5425 74.3333 47.9493 74.5407 48.5595 74.5407ZM59.4414 69.3556H56.8989V75.7852H55.17V69.3556H52.7292V68.0074H59.4414V69.3556ZM65.5434 75.7852C65.4417 75.6815 65.4417 75.3704 65.34 75.0593C64.8315 75.6815 64.1196 75.8889 63.306 75.8889C62.4924 75.8889 61.8822 75.6815 61.3737 75.2667C60.8652 74.8519 60.6618 74.2296 60.6618 73.6074C60.6618 72.7778 60.9669 72.1556 61.5771 71.637C62.1873 71.2222 63.1026 71.0148 64.2213 71.0148H65.2383V70.4963C65.2383 70.0815 65.1366 69.7704 64.9332 69.563C64.7298 69.3556 64.323 69.1481 63.9162 69.1481C63.5094 69.1481 63.2043 69.2519 63.0009 69.4593C62.7975 69.6667 62.5941 69.8741 62.5941 70.1852H60.8652C60.8652 69.7704 60.9669 69.3556 61.272 68.9407C61.5771 68.5259 61.8822 68.3185 62.3907 68.0074C62.8992 67.8 63.4077 67.6963 64.0179 67.6963C64.9332 67.6963 65.6451 67.9037 66.1536 68.4222C66.6621 68.837 66.9672 69.563 66.9672 70.3926V73.9185C66.9672 74.6444 67.0689 75.163 67.2723 75.5778V75.6815H65.5434V75.7852ZM63.6111 74.5407C63.9162 74.5407 64.2213 74.437 64.5264 74.3333C64.8315 74.1259 65.0349 73.9185 65.2383 73.6074V72.1556H64.323C63.7128 72.1556 63.2043 72.2593 62.8992 72.4667C62.5941 72.6741 62.3907 72.9852 62.3907 73.4C62.3907 73.7111 62.4924 74.0222 62.6958 74.2296C63.0009 74.437 63.306 74.5407 63.6111 74.5407ZM75.2049 69.3556H72.6624V75.7852H70.9335V69.3556H68.4927V68.0074H75.2049V69.3556ZM81.612 68.0074H83.3409V75.8889H81.612V70.7037L78.561 75.8889H76.8321V68.0074H78.561V73.1926L81.612 68.0074ZM88.731 74.5407C89.1378 74.5407 89.5445 74.437 89.8496 74.1259C90.1548 73.9185 90.2565 73.5037 90.2565 73.1926H91.8836C91.8836 73.7111 91.6803 74.1259 91.4769 74.5407C91.1718 74.9556 90.8666 75.2667 90.3582 75.5778C89.8496 75.7852 89.3411 75.9926 88.8326 75.9926C87.714 75.9926 86.9004 75.6815 86.2902 74.9556C85.68 74.2296 85.3749 73.2963 85.3749 72.0519V71.8444C85.3749 70.7037 85.68 69.6667 86.2902 68.9407C86.9004 68.2148 87.8157 67.9037 88.8326 67.9037C89.7479 67.9037 90.4599 68.2148 91.0701 68.7333C91.6803 69.2519 91.9854 69.9778 91.9854 70.9111H90.3582C90.3582 70.4963 90.1548 70.0815 89.9514 69.7704C89.6463 69.4593 89.3411 69.3556 88.8326 69.3556C88.3242 69.3556 87.8157 69.563 87.5106 69.9778C87.2055 70.3926 87.1038 71.0148 87.0021 71.8444V72.1556C87.0021 72.9852 87.1038 73.6074 87.4089 74.0222C87.714 74.3333 88.1208 74.5407 88.731 74.5407ZM99.6128 69.3556H97.0703V75.7852H95.3414V69.3556H92.9006V68.0074H99.6128V69.3556ZM106.02 68.0074H107.749V75.8889H106.02V70.7037L102.969 75.8889H101.342V68.0074H103.071V73.1926L106.02 68.0074ZM112.732 72.7778H111.817V75.8889H110.088V68.0074H111.817V71.1185H112.529L114.664 68.0074H116.8L114.054 71.7407L117.105 75.7852H114.868L112.732 72.7778ZM123.106 75.7852C123.004 75.6815 123.004 75.3704 122.902 75.0593C122.394 75.6815 121.682 75.8889 120.868 75.8889C120.055 75.8889 119.444 75.6815 118.936 75.2667C118.427 74.8519 118.224 74.2296 118.224 73.6074C118.224 72.7778 118.529 72.1556 119.139 71.637C119.749 71.2222 120.665 71.0148 121.783 71.0148H122.8V70.4963C122.8 70.0815 122.699 69.7704 122.495 69.563C122.292 69.3556 121.885 69.1481 121.478 69.1481C121.072 69.1481 120.766 69.2519 120.563 69.4593C120.36 69.6667 120.156 69.8741 120.156 70.1852H118.427C118.427 69.7704 118.529 69.3556 118.834 68.9407C119.139 68.5259 119.444 68.3185 119.953 68.0074C120.461 67.8 120.97 67.6963 121.58 67.6963C122.495 67.6963 123.207 67.9037 123.716 68.4222C124.224 68.837 124.529 69.563 124.529 70.3926V73.9185C124.529 74.6444 124.631 75.163 124.834 75.5778V75.6815H123.106V75.7852ZM121.173 74.5407C121.478 74.5407 121.783 74.437 122.089 74.3333C122.394 74.1259 122.597 73.9185 122.8 73.6074V72.1556H121.885C121.275 72.1556 120.766 72.2593 120.461 72.4667C120.156 72.6741 119.953 72.9852 119.953 73.4C119.953 73.7111 120.055 74.0222 120.258 74.2296C120.563 74.437 120.868 74.5407 121.173 74.5407ZM137.445 75.7852H135.716V69.3556H132.767V75.7852H131.038V68.0074H137.445V75.7852ZM146.395 71.9482C146.395 73.1926 146.09 74.1259 145.581 74.8519C145.073 75.5778 144.361 75.8889 143.445 75.8889C142.632 75.8889 141.92 75.5778 141.411 75.0593V78.7926H139.683V68.0074H141.31L141.411 68.837C141.92 68.2148 142.632 67.9037 143.445 67.9037C144.361 67.9037 145.073 68.2148 145.683 68.9407C146.191 69.6667 146.496 70.6 146.496 71.9482H146.395ZM144.666 71.8444C144.666 71.0148 144.463 70.3926 144.157 69.9778C143.852 69.563 143.445 69.2519 142.835 69.2519C142.123 69.2519 141.615 69.563 141.31 70.1852V73.7111C141.615 74.3333 142.123 74.6444 142.835 74.6444C143.344 74.6444 143.852 74.437 144.157 74.0222C144.564 73.4 144.666 72.7778 144.666 71.8444ZM151.683 75.9926C150.564 75.9926 149.751 75.6815 149.039 74.9556C148.327 74.2296 148.022 73.2963 148.022 72.1556V71.9482C148.022 71.1185 148.124 70.4963 148.429 69.8741C148.734 69.2519 149.141 68.7333 149.649 68.4222C150.158 68.1111 150.768 67.9037 151.48 67.9037C152.497 67.9037 153.31 68.2148 153.921 68.9407C154.531 69.6667 154.734 70.6 154.734 71.8444V72.5704H149.751C149.853 73.1926 150.056 73.7111 150.361 74.1259C150.768 74.5407 151.175 74.6444 151.785 74.6444C152.598 74.6444 153.209 74.3333 153.717 73.7111L154.632 74.6444C154.327 75.163 153.921 75.4741 153.412 75.7852C152.904 75.8889 152.293 75.9926 151.683 75.9926ZM151.48 69.2519C150.971 69.2519 150.666 69.4593 150.361 69.7704C150.056 70.0815 149.853 70.6 149.853 71.2222H153.107V71.1185C153.107 70.4963 152.904 70.0815 152.598 69.7704C152.293 69.4593 151.988 69.2519 151.48 69.2519ZM159.717 74.5407C160.124 74.5407 160.531 74.437 160.836 74.1259C161.141 73.9185 161.243 73.5037 161.243 73.1926H162.87C162.87 73.7111 162.667 74.1259 162.463 74.5407C162.158 74.9556 161.853 75.2667 161.345 75.5778C160.836 75.7852 160.328 75.9926 159.819 75.9926C158.7 75.9926 157.887 75.6815 157.277 74.9556C156.666 74.2296 156.361 73.2963 156.361 72.0519V71.8444C156.361 70.7037 156.666 69.6667 157.277 68.9407C157.887 68.2148 158.802 67.9037 159.819 67.9037C160.734 67.9037 161.446 68.2148 162.057 68.7333C162.667 69.2519 162.972 69.9778 162.972 70.9111H161.345C161.345 70.4963 161.141 70.0815 160.938 69.7704C160.633 69.4593 160.328 69.3556 159.819 69.3556C159.311 69.3556 158.802 69.563 158.497 69.9778C158.192 70.3926 158.09 71.0148 157.989 71.8444V72.1556C157.989 72.9852 158.09 73.6074 158.395 74.0222C158.7 74.3333 159.107 74.5407 159.717 74.5407ZM170.599 69.3556H168.057V75.7852H166.43V69.3556H163.989V68.0074H170.701V69.3556H170.599ZM174.972 73.2963L176.6 68.0074H178.43L175.379 77.0296C174.871 78.3778 174.159 79 173.04 79C172.837 79 172.532 79 172.227 78.8963V77.5481H172.532C172.938 77.5481 173.345 77.4444 173.549 77.3407C173.752 77.1333 173.955 76.9259 174.057 76.5111L174.261 75.8889L171.515 68.0074H173.345L174.972 73.2963ZM186.363 75.7852H184.634V69.3556H181.685V75.7852H179.956V68.0074H186.363V75.7852ZM195.109 68.0074V75.8889H193.38V69.4593H191.244L191.143 72.1556C191.041 73.5037 190.838 74.437 190.431 74.9556C190.024 75.4741 189.414 75.7852 188.6 75.7852H188.092V74.3333H188.397C188.804 74.2296 189.007 74.0222 189.21 73.6074C189.414 73.1926 189.516 72.4667 189.516 71.3259L189.617 68.0074H195.109ZM200.804 75.9926C199.686 75.9926 198.872 75.6815 198.16 74.9556C197.448 74.2296 197.143 73.2963 197.143 72.1556V71.9482C197.143 71.1185 197.245 70.4963 197.55 69.8741C197.855 69.2519 198.262 68.7333 198.77 68.4222C199.279 68.1111 199.889 67.9037 200.601 67.9037C201.618 67.9037 202.431 68.2148 203.042 68.9407C203.652 69.6667 203.855 70.6 203.855 71.8444V72.5704H198.872C198.974 73.1926 199.177 73.7111 199.482 74.1259C199.889 74.5407 200.296 74.6444 200.906 74.6444C201.72 74.6444 202.33 74.3333 202.838 73.7111L203.754 74.6444C203.448 75.163 203.042 75.4741 202.533 75.7852C202.025 75.8889 201.414 75.9926 200.804 75.9926ZM200.601 69.2519C200.092 69.2519 199.787 69.4593 199.482 69.7704C199.177 70.0815 198.974 70.6 198.974 71.2222H202.228V71.1185C202.228 70.4963 202.025 70.0815 201.72 69.7704C201.414 69.4593 201.109 69.2519 200.601 69.2519ZM212.195 75.7852H210.466V72.5704H207.516V75.7852H205.788V68.0074H207.516V71.2222H210.466V68.0074H212.195V75.7852ZM219.212 68.0074H220.941V75.8889H219.212V70.7037L216.161 75.8889H214.432V68.0074H216.161V73.1926L219.212 68.0074ZM228.06 68.0074H229.789V75.8889H228.06V70.7037L225.009 75.8889H223.28V68.0074H225.009V73.1926L228.06 68.0074ZM228.873 65C228.873 65.6222 228.67 66.1407 228.263 66.4519C227.856 66.8667 227.246 66.9704 226.636 66.9704C225.924 66.9704 225.416 66.763 225.009 66.4519C224.602 66.1407 224.399 65.6222 224.399 65H225.721C225.721 65.3111 225.822 65.5185 226.026 65.7259C226.229 65.9333 226.433 66.037 226.738 66.037C227.043 66.037 227.246 65.9333 227.45 65.7259C227.653 65.5185 227.755 65.3111 227.755 65H228.873ZM240.874 68.0074H242.603V75.8889H240.874V70.7037L237.823 75.8889H236.094V68.0074H237.823V73.1926L240.874 68.0074ZM255.417 75.7852H253.688V72.5704H250.739V75.7852H249.01V68.0074H250.739V71.2222H253.688V68.0074H255.417V75.7852ZM262.333 75.7852C262.231 75.6815 262.231 75.3704 262.129 75.0593C261.621 75.6815 260.909 75.8889 260.095 75.8889C259.282 75.8889 258.671 75.6815 258.163 75.2667C257.654 74.8519 257.451 74.2296 257.451 73.6074C257.451 72.7778 257.756 72.1556 258.366 71.637C258.977 71.2222 259.892 71.0148 261.011 71.0148H262.028V70.4963C262.028 70.0815 261.926 69.7704 261.722 69.563C261.519 69.3556 261.112 69.1481 260.705 69.1481C260.299 69.1481 259.994 69.2519 259.688 69.4593C259.485 69.6667 259.282 69.8741 259.282 70.1852H257.553C257.553 69.7704 257.654 69.3556 257.96 68.9407C258.265 68.5259 258.57 68.3185 259.078 68.0074C259.587 67.8 260.095 67.6963 260.705 67.6963C261.621 67.6963 262.333 67.9037 262.841 68.4222C263.35 68.837 263.655 69.563 263.655 70.3926V73.9185C263.655 74.6444 263.756 75.163 263.96 75.5778V75.6815H262.333V75.7852ZM260.4 74.5407C260.705 74.5407 261.112 74.437 261.316 74.3333C261.621 74.1259 261.824 73.9185 262.028 73.6074V72.1556H261.112C260.502 72.1556 259.994 72.2593 259.688 72.4667C259.383 72.6741 259.18 72.9852 259.18 73.4C259.18 73.7111 259.282 74.0222 259.485 74.2296C259.79 74.437 260.095 74.5407 260.4 74.5407ZM268.74 72.7778H267.824V75.8889H266.096V68.0074H267.824V71.1185H268.536L270.672 68.0074H272.808L270.062 71.7407L273.113 75.7852H270.875L268.74 72.7778ZM279.113 75.7852C279.011 75.6815 279.011 75.3704 278.91 75.0593C278.401 75.6815 277.689 75.8889 276.876 75.8889C276.062 75.8889 275.452 75.6815 274.943 75.2667C274.435 74.8519 274.232 74.2296 274.232 73.6074C274.232 72.7778 274.537 72.1556 275.147 71.637C275.757 71.2222 276.672 71.0148 277.791 71.0148H278.808V70.4963C278.808 70.0815 278.706 69.7704 278.503 69.563C278.3 69.3556 277.893 69.1481 277.486 69.1481C277.079 69.1481 276.774 69.2519 276.571 69.4593C276.367 69.6667 276.164 69.8741 276.164 70.1852H274.435C274.435 69.7704 274.537 69.3556 274.842 68.9407C275.147 68.5259 275.452 68.3185 275.96 68.0074C276.469 67.8 276.977 67.6963 277.588 67.6963C278.503 67.6963 279.215 67.9037 279.723 68.4222C280.232 68.837 280.537 69.563 280.537 70.3926V73.9185C280.537 74.6444 280.639 75.163 280.842 75.5778V75.6815H279.113V75.7852ZM277.181 74.5407C277.486 74.5407 277.791 74.437 278.096 74.3333C278.401 74.1259 278.605 73.9185 278.808 73.6074V72.1556H277.893C277.283 72.1556 276.774 72.2593 276.469 72.4667C276.164 72.6741 275.96 72.9852 275.96 73.4C275.96 73.7111 276.062 74.0222 276.266 74.2296C276.571 74.437 276.876 74.5407 277.181 74.5407ZM288.673 70.1852C288.673 70.4963 288.571 70.8074 288.368 71.1185C288.164 71.4296 287.859 71.637 287.453 71.8444C288.368 72.1556 288.775 72.7778 288.775 73.7111C288.775 74.437 288.47 74.9556 287.961 75.4741C287.351 75.8889 286.639 76.0963 285.622 76.0963C285.012 76.0963 284.503 75.9926 283.995 75.7852C283.486 75.5778 283.181 75.2667 282.876 74.9556C282.571 74.5407 282.469 74.1259 282.469 73.6074H284.198C284.198 73.9185 284.3 74.2296 284.605 74.437C284.91 74.6444 285.215 74.7481 285.622 74.7481C286.029 74.7481 286.334 74.6444 286.639 74.437C286.842 74.2296 287.046 74.0222 287.046 73.6074C287.046 73.1926 286.944 72.9852 286.741 72.7778C286.537 72.5704 286.232 72.5704 285.724 72.5704H284.503V71.3259H285.825C286.639 71.3259 286.944 71.0148 286.944 70.3926C286.944 70.0815 286.842 69.8741 286.639 69.6667C286.436 69.4593 286.13 69.3556 285.724 69.3556C285.317 69.3556 285.012 69.4593 284.808 69.6667C284.503 69.8741 284.402 70.0815 284.402 70.3926H282.673C282.673 69.6667 282.978 69.1481 283.486 68.7333C284.096 68.3185 284.808 68.1111 285.622 68.1111C286.537 68.1111 287.351 68.3185 287.859 68.7333C288.368 68.837 288.673 69.3556 288.673 70.1852ZM295.283 75.7852C295.182 75.6815 295.182 75.3704 295.08 75.0593C294.572 75.6815 293.86 75.8889 293.046 75.8889C292.232 75.8889 291.622 75.6815 291.114 75.2667C290.605 74.8519 290.402 74.2296 290.402 73.6074C290.402 72.7778 290.707 72.1556 291.317 71.637C291.927 71.2222 292.843 71.0148 293.961 71.0148H294.978V70.4963C294.978 70.0815 294.877 69.7704 294.673 69.563C294.47 69.3556 294.063 69.1481 293.656 69.1481C293.249 69.1481 292.944 69.2519 292.741 69.4593C292.538 69.6667 292.334 69.8741 292.334 70.1852H290.605C290.605 69.7704 290.707 69.3556 291.012 68.9407C291.317 68.5259 291.622 68.3185 292.131 68.0074C292.639 67.8 293.148 67.6963 293.758 67.6963C294.673 67.6963 295.385 67.9037 295.894 68.4222C296.402 68.837 296.707 69.563 296.707 70.3926V73.9185C296.707 74.6444 296.809 75.163 297.012 75.5778V75.6815H295.283V75.7852ZM293.351 74.5407C293.656 74.5407 293.961 74.437 294.266 74.3333C294.572 74.1259 294.775 73.9185 294.978 73.6074V72.1556H294.063C293.453 72.1556 292.944 72.2593 292.639 72.4667C292.334 72.6741 292.131 72.9852 292.131 73.4C292.131 73.7111 292.232 74.0222 292.436 74.2296C292.741 74.437 293.046 74.5407 293.351 74.5407ZM305.453 75.7852H303.725V72.5704H300.775V75.7852H299.046V68.0074H300.775V71.2222H303.725V68.0074H305.453V75.7852ZM312.572 68.0074H314.301V75.8889H312.572V70.7037L309.521 75.8889H307.793V68.0074H309.521V73.1926L312.572 68.0074ZM321.319 68.0074H323.047V75.8889H321.319V70.7037L318.268 75.8889H316.539V68.0074H318.268V73.1926L321.319 68.0074ZM322.132 65C322.132 65.6222 321.929 66.1407 321.522 66.4519C321.115 66.8667 320.505 66.9704 319.895 66.9704C319.183 66.9704 318.674 66.763 318.268 66.4519C317.861 66.1407 317.657 65.6222 317.657 65H318.979C318.979 65.3111 319.081 65.5185 319.285 65.7259C319.488 65.9333 319.691 66.037 319.996 66.037C320.302 66.037 320.505 65.9333 320.708 65.7259C320.912 65.5185 321.013 65.3111 321.013 65H322.132ZM329.556 75.7852V68.0074H332.709C333.726 68.0074 334.54 68.2148 335.15 68.5259C335.658 68.9407 335.963 69.4593 335.963 70.1852C335.963 70.4963 335.862 70.9111 335.658 71.1185C335.455 71.4296 335.15 71.637 334.641 71.7407C335.15 71.8444 335.557 72.0519 335.862 72.363C336.167 72.6741 336.268 73.0889 336.268 73.5037C336.268 74.2296 335.963 74.7482 335.455 75.163C334.946 75.5778 334.133 75.7852 333.217 75.7852H329.556ZM331.285 72.4667V74.437H333.217C334.133 74.437 334.54 74.1259 334.54 73.5037C334.54 72.8815 334.133 72.5704 333.217 72.5704H331.285V72.4667ZM331.285 71.2222H332.709C333.726 71.2222 334.133 70.9111 334.133 70.2889C334.133 69.6667 333.624 69.3556 332.709 69.3556H331.183V71.2222H331.285ZM344.201 71.9482V75.8889H342.37V65.3111H346.337C347.455 65.3111 348.371 65.6222 349.083 66.2444C349.795 66.8667 350.1 67.6963 350.1 68.6296C350.1 69.6667 349.795 70.4963 349.083 71.0148C348.371 71.637 347.455 71.8444 346.337 71.8444H344.201V71.9482ZM344.201 70.3926H346.337C346.947 70.3926 347.455 70.2889 347.761 69.9778C348.066 69.6667 348.269 69.2519 348.269 68.6296C348.269 68.1111 348.066 67.5926 347.761 67.2815C347.455 66.9704 346.947 66.763 346.337 66.763H344.099V70.3926H344.201ZM351.523 71.8444C351.523 71.1185 351.625 70.3926 351.93 69.7704C352.235 69.1481 352.642 68.6296 353.151 68.3185C353.659 68.0074 354.269 67.8 354.981 67.8C355.998 67.8 356.812 68.1111 357.524 68.837C358.134 69.563 358.541 70.3926 358.541 71.5333V71.9482C358.541 72.6741 358.439 73.4 358.134 74.0222C357.829 74.6444 357.422 75.0593 356.914 75.4741C356.405 75.7852 355.795 75.9926 355.083 75.9926C353.964 75.9926 353.151 75.5778 352.439 74.8519C351.829 74.1259 351.523 73.1926 351.523 71.8444ZM353.252 71.9482C353.252 72.7778 353.456 73.4 353.761 73.8148C354.066 74.2296 354.574 74.5407 355.083 74.5407C355.591 74.5407 356.1 74.3333 356.405 73.8148C356.71 73.4 356.914 72.6741 356.914 71.7407C356.914 70.9111 356.71 70.2889 356.405 69.8741C356.1 69.4593 355.591 69.1481 355.083 69.1481C354.473 69.1481 354.066 69.3556 353.761 69.8741C353.456 70.3926 353.252 71.1185 353.252 71.9482ZM363.727 74.5407C364.134 74.5407 364.541 74.437 364.846 74.1259C365.151 73.9185 365.253 73.5037 365.253 73.1926H366.88C366.88 73.7111 366.677 74.1259 366.473 74.5407C366.168 74.9556 365.863 75.2667 365.355 75.5778C364.846 75.7852 364.338 75.9926 363.829 75.9926C362.71 75.9926 361.897 75.6815 361.287 74.9556C360.676 74.2296 360.371 73.2963 360.371 72.0519V71.8444C360.371 70.7037 360.676 69.6667 361.287 68.9407C361.897 68.2148 362.812 67.9037 363.829 67.9037C364.744 67.9037 365.456 68.2148 366.067 68.7333C366.677 69.2519 366.982 69.9778 366.982 70.9111H365.355C365.355 70.4963 365.151 70.0815 364.948 69.7704C364.643 69.4593 364.338 69.3556 363.829 69.3556C363.321 69.3556 362.812 69.563 362.507 69.9778C362.202 70.3926 362.1 71.0148 361.999 71.8444V72.1556C361.999 72.9852 362.1 73.6074 362.405 74.0222C362.71 74.3333 363.117 74.5407 363.727 74.5407ZM371.762 74.5407C372.169 74.5407 372.575 74.437 372.88 74.1259C373.186 73.9185 373.287 73.5037 373.287 73.1926H374.914C374.914 73.7111 374.711 74.1259 374.508 74.5407C374.203 74.9556 373.897 75.2667 373.389 75.5778C372.88 75.7852 372.372 75.9926 371.863 75.9926C370.745 75.9926 369.931 75.6815 369.321 74.9556C368.711 74.2296 368.406 73.2963 368.406 72.0519V71.8444C368.406 70.7037 368.711 69.6667 369.321 68.9407C369.931 68.2148 370.846 67.9037 371.863 67.9037C372.779 67.9037 373.491 68.2148 374.101 68.7333C374.711 69.2519 375.016 69.9778 375.016 70.9111H373.389C373.389 70.4963 373.186 70.0815 372.982 69.7704C372.677 69.4593 372.372 69.3556 371.863 69.3556C371.355 69.3556 370.846 69.563 370.541 69.9778C370.236 70.3926 370.135 71.0148 370.033 71.8444V72.1556C370.033 72.9852 370.135 73.6074 370.44 74.0222C370.745 74.3333 371.152 74.5407 371.762 74.5407ZM381.423 68.0074H383.152V75.8889H381.423V70.7037L378.372 75.8889H376.643V68.0074H378.372V73.1926L381.423 68.0074ZM390.271 68.0074H392V75.8889H390.271V70.7037L387.22 75.8889H385.491V68.0074H387.22V73.1926L390.271 68.0074Z" fill="white"/>
</svg>
