<svg width="228" height="38" viewBox="0 0 228 38" fill="none" xmlns="http://www.w3.org/2000/svg">
<path d="M53.3004 13.7C53.9004 12.7 54.9004 12.2 56.2004 12.2C57.5004 12.2 58.5004 12.5 59.1004 13.1C59.7004 13.7 60.1004 14.6 60.1004 16H65.4004C65.2004 13.5 64.3004 11.6 62.6004 10.2C61.0004 8.7 58.9004 8 56.2004 8C54.3004 8 52.7004 8.4 51.3004 9.3C49.9004 10.2 48.8004 11.4 48.0004 13.1C47.3004 14.7 46.9004 16.6 46.9004 18.8V19.9C46.9004 23.3 47.7004 26 49.4004 27.9C51.1004 29.8 53.3004 30.7 56.2004 30.7C58.0004 30.7 59.5004 30.4 60.9004 29.7C62.3004 29.1 63.3004 28.1 64.1004 27C64.9004 25.8 65.3004 24.5 65.3004 22.9H60.0004C60.0004 24.2 59.6004 25.1 59.0004 25.6C58.4004 26.2 57.4004 26.5 56.2004 26.5C54.8004 26.5 53.7004 26 53.1004 25C52.5004 24 52.2004 22.3 52.2004 20V18.4C52.4004 16.2 52.7004 14.7 53.3004 13.7Z" fill="white"/>
<path d="M66.1992 12.4008H72.6992V30.4008H77.9992V12.4008H84.5992V8.30078H66.1992V12.4008Z" fill="white"/>
<path d="M40.2 9.4C38.7 8.5 37 8 35.2 8C33.3 8 31.6 8.4 30.1 9.3C28.6 10.2 27.5 11.5 26.7 13.1C25.9 14.7 25.5 16.6 25.5 18.8V20C25.5 22.1 26 23.9 26.8 25.5C27.6 27.1 28.8 28.3 30.2 29.2C31.7 30.1 33.3 30.5 35.2 30.5C37.1 30.5 38.7 30.1 40.2 29.2C41.7 28.3 42.8 27 43.6 25.4C44.4 23.7 44.8 21.8 44.8 19.7V18.7C44.8 16.6 44.4 14.7 43.6 13.1C42.8 11.5 41.6 10.3 40.2 9.4ZM39.4 19.9C39.4 22 39 23.7 38.3 24.8C37.6 25.9 36.5 26.5 35.2 26.5C33.8 26.5 32.7 25.9 32 24.8C31.3 23.6 30.9 22 30.9 19.8V18.2C31.1 14.2 32.5 12.2 35.1 12.2C36.5 12.2 37.5 12.8 38.2 13.9C38.9 15 39.3 16.7 39.3 18.9V19.9H39.4Z" fill="white"/>
<path d="M191.9 22.3008V8.30078H186.6V30.4008H191.9L199.8 16.5008V30.4008H205.1V8.30078H199.8L191.9 22.3008Z" fill="white"/>
<path d="M151.701 13.6996C152.301 12.6996 153.301 12.1996 154.601 12.1996C155.901 12.1996 156.901 12.4996 157.501 13.0996C158.101 13.6996 158.501 14.5996 158.501 15.9996H163.801C163.601 13.4996 162.701 11.5996 161.001 10.1996C159.401 8.79961 157.201 8.09961 154.601 8.09961C152.701 8.09961 151.101 8.49961 149.701 9.39961C148.301 10.2996 147.201 11.4996 146.401 13.1996C145.701 14.7996 145.301 16.6996 145.301 18.8996V19.9996C145.301 23.3996 146.101 26.0996 147.801 27.9996C149.501 29.8996 151.701 30.7996 154.601 30.7996C156.401 30.7996 157.901 30.4996 159.301 29.7996C160.701 29.1996 161.701 28.1996 162.501 27.0996C163.301 25.8996 163.701 24.5996 163.701 22.9996H158.401C158.401 24.2996 158.001 25.1996 157.401 25.6996C156.801 26.2996 155.801 26.5996 154.601 26.5996C153.201 26.5996 152.101 26.0996 151.501 25.0996C150.901 24.0996 150.601 22.3996 150.601 20.0996V18.4996C150.701 16.1996 151.001 14.6996 151.701 13.6996Z" fill="white"/>
<path d="M184.5 8.30078H178L173.8 16.9008H171.8V8.30078H166.4V30.4008H171.8V21.7008H174.3L178.9 30.4008H185.2L178.4 18.5008L184.5 8.30078Z" fill="white"/>
<path d="M139.4 19.1008C140.4 18.7008 141.2 18.1008 141.7 17.3008C142.2 16.5008 142.5 15.5008 142.5 14.4008C142.5 12.4008 141.8 10.9008 140.3 9.90078C138.8 8.90078 136.7 8.30078 133.8 8.30078H125.9V30.3008H134.8C137.5 30.3008 139.5 29.7008 140.9 28.7008C142.3 27.6008 143 26.0008 143 23.8008C143 22.6008 142.7 21.6008 142.1 20.8008C141.4 20.0008 140.5 19.4008 139.4 19.1008ZM131.2 12.4008H133.8C135 12.4008 135.9 12.6008 136.4 13.0008C136.9 13.4008 137.2 14.1008 137.2 15.0008C137.2 15.8008 137 16.4008 136.5 16.8008C136 17.2008 135.2 17.4008 134 17.4008H131.2V12.4008ZM136.9 25.6008C136.4 26.0008 135.6 26.3008 134.7 26.3008H131.2V21.0008H134.9C136.7 21.0008 137.6 21.9008 137.6 23.8008C137.7 24.6008 137.4 25.2008 136.9 25.6008Z" fill="white"/>
<path d="M107.801 30.4008H123.001V26.3008H113.201V21.0008H121.501V17.1008H113.201V12.4008H123.101V8.30078H107.801V30.4008Z" fill="white"/>
<path d="M100.001 9.4C98.5008 8.5 96.9008 8 95.0008 8C93.1008 8 91.4008 8.4 89.9008 9.3C88.4008 10.2 87.3008 11.5 86.5008 13.1C85.7008 14.7 85.3008 16.6 85.3008 18.8V20C85.3008 22.1 85.8008 23.9 86.6008 25.5C87.4008 27.1 88.6008 28.3 90.0008 29.2C91.5008 30.1 93.1008 30.5 95.0008 30.5C96.9008 30.5 98.5008 30.1 100.001 29.2C101.501 28.3 102.601 27 103.401 25.4C104.201 23.7 104.601 21.8 104.601 19.7V18.7C104.601 16.6 104.201 14.7 103.401 13.1C102.601 11.5 101.501 10.3 100.001 9.4ZM99.2008 19.9C99.2008 22 98.8008 23.7 98.1008 24.8C97.4008 25.9 96.3008 26.5 95.0008 26.5C93.6008 26.5 92.5008 25.9 91.8008 24.8C91.1008 23.7 90.7008 22 90.7008 19.8V18.2C90.9008 14.2 92.3008 12.2 94.9008 12.2C96.3008 12.2 97.3008 12.8 98.0008 13.9C98.7008 15 99.1008 16.7 99.1008 18.9V19.9H99.2008Z" fill="white"/>
<path d="M24.3004 32.6016H1.40039V36.7016H24.3004V32.6016Z" fill="#7C89E4"/>
<path d="M21.8004 26.3008V8.30078H6.80039L6.10039 17.7008C5.90039 20.2008 5.50039 22.1008 5.00039 23.4008C4.50039 24.7008 3.90039 25.6008 3.00039 26.2008H1.40039V30.3008H1.70039H6.80039H6.90039H18.7004H18.8004H23.9004H24.3004V26.2008H21.8004V26.3008ZM16.5004 26.3008H9.00039C10.2004 24.3008 11.0004 21.5008 11.3004 18.0008L11.7004 12.5008H16.4004V26.3008H16.5004Z" fill="white"/>
<path d="M221.899 8.30078L213.999 22.3008V8.30078H208.699V30.4008H213.999L221.899 16.5008V30.4008H227.199V8.30078H221.899Z" fill="white"/>
<path d="M227.199 2H208.699V6.1H227.199V2Z" fill="#7C89E4"/>
</svg>
