<?xml version="1.0" encoding="utf-8"?>
<!-- Generator: Adobe Illustrator 23.0.3, SVG Export Plug-In . SVG Version: 6.00 Build 0)  -->
<svg version="1.1" id="Layer_1" xmlns="http://www.w3.org/2000/svg" xmlns:xlink="http://www.w3.org/1999/xlink" x="0px" y="0px"
	 viewBox="0 0 365.7 81" style="enable-background:new 0 0 365.7 81;" xml:space="preserve">
<style type="text/css">
	.st0{fill:none;}
	.st1{fill:#FFFFFF;}
	.st2{font-family:'Roboto-Medium';}
	.st3{font-size:14px;}
	.st4{fill:#7C89E4;}
</style>
<rect x="26.8" y="58.8" class="st0" width="295.6" height="22.4"/>
<text transform="matrix(1 0 0 1 26.8223 69.3161)" class="st1 st2 st3">Crime and punishment statistics in Russia</text>
<g>
	<path class="st1" d="M82.9,32.1c0,3.7-0.7,6.9-2,9.8c-1.4,2.8-3.3,5-5.8,6.5c-2.5,1.5-5.4,2.3-8.6,2.3s-6.1-0.7-8.5-2.2
		c-2.5-1.5-4.4-3.6-5.8-6.3c-1.4-2.7-2.1-5.9-2.2-9.4v-2.1c0-3.7,0.7-6.9,2-9.8c1.4-2.8,3.3-5,5.8-6.5s5.4-2.3,8.6-2.3
		c3.2,0,6,0.8,8.5,2.3c2.5,1.5,4.4,3.7,5.8,6.5c1.4,2.8,2.1,6,2.1,9.6V32.1z M73.7,30.5c0-3.7-0.6-6.6-1.9-8.5
		c-1.3-1.9-3-2.9-5.4-2.9c-4.6,0-7,3.4-7.2,10.2l0,2.8c0,3.7,0.6,6.5,1.8,8.5c1.2,2,3,3,5.5,3c2.3,0,4.1-1,5.3-2.9s1.9-4.8,1.9-8.4
		V30.5z"/>
	<path class="st1" d="M106.5,40.1c0-1.3-0.5-2.4-1.4-3.1s-2.6-1.5-5-2.3c-2.4-0.8-4.3-1.6-5.8-2.3c-4.9-2.4-7.3-5.7-7.3-9.9
		c0-2.1,0.6-3.9,1.8-5.5c1.2-1.6,2.9-2.8,5.2-3.7s4.7-1.3,7.5-1.3c2.7,0,5.1,0.5,7.3,1.4c2.1,1,3.8,2.3,5,4.1
		c1.2,1.8,1.8,3.8,1.8,6.1h-9.1c0-1.5-0.5-2.7-1.4-3.6c-0.9-0.8-2.2-1.3-3.8-1.3c-1.6,0-2.9,0.4-3.8,1.1c-0.9,0.7-1.4,1.6-1.4,2.7
		c0,1,0.5,1.8,1.6,2.6s2.9,1.6,5.5,2.4c2.6,0.8,4.7,1.7,6.4,2.7c4.1,2.3,6.1,5.6,6.1,9.7c0,3.3-1.2,5.9-3.7,7.8s-5.9,2.8-10.2,2.8
		c-3.1,0-5.8-0.5-8.3-1.6c-2.5-1.1-4.3-2.6-5.6-4.5c-1.3-1.9-1.9-4.1-1.9-6.6H95c0,2,0.5,3.5,1.6,4.5c1,1,2.7,1.4,5.1,1.4
		c1.5,0,2.7-0.3,3.6-1C106.1,42.2,106.5,41.3,106.5,40.1z"/>
	<path class="st1" d="M149.5,19.5h-11.3v30.7h-9.1V19.5H118v-7h31.5V19.5z"/>
	<path class="st1" d="M183.9,32.1c0,3.7-0.7,6.9-2,9.8c-1.4,2.8-3.3,5-5.8,6.5c-2.5,1.5-5.4,2.3-8.6,2.3s-6.1-0.7-8.5-2.2
		c-2.5-1.5-4.4-3.6-5.8-6.3c-1.4-2.7-2.1-5.9-2.2-9.4v-2.1c0-3.7,0.7-6.9,2-9.8c1.4-2.8,3.3-5,5.8-6.5s5.4-2.3,8.6-2.3
		c3.2,0,6,0.8,8.5,2.3c2.5,1.5,4.4,3.7,5.8,6.5c1.4,2.8,2.1,6,2.1,9.6V32.1z M174.6,30.5c0-3.7-0.6-6.6-1.9-8.5
		c-1.3-1.9-3-2.9-5.4-2.9c-4.6,0-7,3.4-7.2,10.2l0,2.8c0,3.7,0.6,6.5,1.8,8.5c1.2,2,3,3,5.5,3c2.3,0,4.1-1,5.3-2.9s1.9-4.8,1.9-8.4
		V30.5z"/>
	<path class="st1" d="M211.7,34.2h-14.3v9h16.9v7h-26V12.5h26v7h-16.9v7.9h14.3V34.2z"/>
	<path class="st1" d="M233.9,39.9l7.5-27.4h10.1l-12.7,37.7H229l-12.6-37.7h10.1L233.9,39.9z"/>
	<path class="st1" d="M272.3,40.1c0-1.3-0.5-2.4-1.4-3.1s-2.6-1.5-5-2.3c-2.4-0.8-4.3-1.6-5.8-2.3c-4.9-2.4-7.3-5.7-7.3-9.9
		c0-2.1,0.6-3.9,1.8-5.5c1.2-1.6,2.9-2.8,5.2-3.7s4.7-1.3,7.5-1.3c2.7,0,5.1,0.5,7.3,1.4c2.1,1,3.8,2.3,5,4.1
		c1.2,1.8,1.8,3.8,1.8,6.1h-9.1c0-1.5-0.5-2.7-1.4-3.6c-0.9-0.8-2.2-1.3-3.8-1.3c-1.6,0-2.9,0.4-3.8,1.1c-0.9,0.7-1.4,1.6-1.4,2.7
		c0,1,0.5,1.8,1.6,2.6s2.9,1.6,5.5,2.4c2.6,0.8,4.7,1.7,6.4,2.7c4.1,2.3,6.1,5.6,6.1,9.7c0,3.3-1.2,5.9-3.7,7.8s-5.9,2.8-10.2,2.8
		c-3.1,0-5.8-0.5-8.3-1.6c-2.5-1.1-4.3-2.6-5.6-4.5c-1.3-1.9-1.9-4.1-1.9-6.6h9.1c0,2,0.5,3.5,1.6,4.5c1,1,2.7,1.4,5.1,1.4
		c1.5,0,2.7-0.3,3.6-1C271.9,42.2,272.3,41.3,272.3,40.1z"/>
	<path class="st1" d="M298.9,36.1l-3.7,4.1v9.9h-9.1V12.5h9.1v16.6l3.2-4.8l8.1-11.8h11.2L305,29.1l12.7,21H307L298.9,36.1z"/>
	<rect x="15.1" y="12.5" class="st4" width="9.2" height="37.7"/>
	<path class="st1" d="M44.4,21.1c-1.5-2.8-3.6-4.9-6.2-6.4c-2.7-1.5-5.7-2.3-9-2.3h-1.1v7h1.1c2.7,0,4.7,0.9,6.1,2.8
		c1.4,1.8,2.1,4.6,2.1,8.2v1.6c0,3.7-0.7,6.4-2.1,8.3c-1.4,1.9-3.4,2.8-6,2.8h-1.2v7h1.4c3.3,0,6.2-0.8,8.9-2.3
		c2.6-1.5,4.7-3.7,6.2-6.4c1.5-2.7,2.2-5.8,2.2-9.3v-1.7C46.7,27,45.9,23.9,44.4,21.1z"/>
	<g>
		<polygon class="st4" points="335.6,50.2 351.8,12.4 341.9,12.4 325.6,50.2 		"/>
		<g>
			<polygon class="st1" points="333.5,22 329.4,12.4 319.4,12.4 328.6,33.6 			"/>
		</g>
	</g>
</g>
</svg>
