<svg width="574" height="271" viewBox="0 0 574 271" fill="none" xmlns="http://www.w3.org/2000/svg">
<mask id="mask0" mask-type="alpha" maskUnits="userSpaceOnUse" x="0" y="0" width="574" height="271">
<g clip-path="url(#clip0)">
<path d="M72.2872 243.136H72.0661L1.52997 228.93C0.866624 228.708 0.645508 228.042 0.645508 227.376C0.866624 226.71 1.30886 226.266 2.19332 226.488L72.2872 240.472L142.16 212.504L212.475 105.736C212.696 105.292 213.359 105.07 214.023 105.292L284.117 130.819L353.989 105.292L424.304 48.9121C424.525 48.6901 424.968 48.6901 425.41 48.6901L495.504 65.3378L572.673 24.0514C573.337 23.8295 574 24.0514 574.442 24.4954C574.663 25.1613 574.442 25.8272 574 26.2711L496.388 67.7795C496.167 68.0015 495.725 68.0015 495.504 68.0015L425.631 51.3537L355.537 107.512C355.537 107.512 355.316 107.734 355.095 107.734L284.117 133.261C283.895 133.261 283.453 133.261 283.232 133.261L213.802 107.956L143.929 214.28C143.708 214.502 143.487 214.502 143.266 214.724L72.7294 242.914C72.7294 243.136 72.5083 243.136 72.2872 243.136Z" fill="#FF6700"/>
<path d="M1.96907 257.122C1.74795 257.122 1.30572 256.9 1.0846 256.678C0.642372 256.235 0.642372 255.347 1.0846 254.903L71.3996 188.756C71.8418 188.312 72.5052 188.312 72.9474 188.756L142.82 240.475L212.914 212.284L283.229 163.007C283.45 162.785 283.671 162.785 284.113 162.785L354.428 169.888H354.65L424.301 196.969L494.395 141.698C494.616 141.476 495.058 141.476 495.501 141.476L573.112 160.122C573.776 160.344 574.218 161.009 573.997 161.675C573.776 162.341 573.112 162.785 572.449 162.563L495.501 144.14L425.407 199.41C424.965 199.854 424.522 199.854 424.08 199.632L353.986 172.33L284.113 165.227L214.02 214.504L143.262 242.916C142.82 243.138 142.378 242.916 142.157 242.694L72.5052 191.197L2.85353 256.9C2.4113 257.122 2.19019 257.122 1.96907 257.122Z" fill="#FF6700"/>
<path opacity="0.7" d="M1.97168 256.007L72.2867 189.638L142.823 241.801L213.359 213.611L283.674 164.112L354.21 170.993L424.525 198.517L495.061 142.803L572.673 161.448V270.213H1.97168V256.007Z" fill="url(#paint0_linear)"/>
<path d="M283.676 223.598C283.455 223.598 283.013 223.376 282.792 223.376L212.919 158.339L143.267 166.774L73.1735 223.376C72.7313 223.598 72.289 223.82 71.8468 223.598L1.53183 196.074C0.868479 195.852 0.426246 195.186 0.647363 194.52C0.868479 193.854 1.53183 193.632 2.19518 193.854L72.0679 220.934L142.162 164.776C142.162 164.554 142.383 164.554 142.604 164.332L213.14 155.675C213.582 155.675 213.803 155.675 214.025 155.897L284.118 220.934L353.549 204.287L423.643 113.501C423.864 113.279 424.085 113.057 424.306 113.057L494.4 89.7503L571.791 0.296474C572.233 -0.147465 573.117 -0.369435 573.56 0.0745044C574.002 0.518444 574.223 1.40632 573.781 1.85026L496.169 91.7481C495.948 91.97 495.948 91.97 495.727 92.192L425.412 115.499L355.097 206.284C355.097 206.506 354.876 206.728 354.433 206.728L283.897 223.598C283.897 223.598 283.897 223.598 283.676 223.598Z" fill="#FF6700"/>
<path opacity="0.7" d="M1.97363 194.971L72.2886 222.496L142.825 165.671L213.361 157.014L283.676 222.496L354.212 205.626L424.748 114.396L495.063 91.0894L572.675 1.41357V270.219H1.97363V194.971Z" fill="url(#paint1_linear)"/>
<path d="M72.2847 244.909C73.8722 244.909 75.1592 243.617 75.1592 242.024C75.1592 240.43 73.8722 239.138 72.2847 239.138C70.6971 239.138 69.4102 240.43 69.4102 242.024C69.4102 243.617 70.6971 244.909 72.2847 244.909Z" fill="#FF6700"/>
<path d="M72.2874 246.906C69.634 246.906 67.4229 244.686 67.4229 242.022C67.4229 239.359 69.634 237.139 72.2874 237.139C74.9408 237.139 77.152 239.359 77.152 242.022C77.152 244.686 74.9408 246.906 72.2874 246.906ZM72.2874 238.693C70.5185 238.693 69.1918 240.025 69.1918 241.801C69.1918 243.576 70.5185 244.908 72.2874 244.908C74.0563 244.908 75.383 243.576 75.383 241.801C75.383 240.025 74.0563 238.693 72.2874 238.693Z" fill="#FF6700"/>
<path d="M69.4102 222.27C69.4102 223.824 70.7369 225.156 72.2847 225.156C73.8325 225.156 75.1592 223.824 75.1592 222.27C75.1592 220.717 73.8325 219.385 72.2847 219.385C70.7369 219.385 69.4102 220.717 69.4102 222.27Z" fill="#FF6700"/>
<path d="M72.2874 227.154C69.634 227.154 67.4229 224.934 67.4229 222.27C67.4229 219.607 69.634 217.387 72.2874 217.387C74.9408 217.387 77.152 219.607 77.152 222.27C77.152 224.934 74.9408 227.154 72.2874 227.154ZM72.2874 219.163C70.5185 219.163 69.1918 220.495 69.1918 222.27C69.1918 224.046 70.5185 225.378 72.2874 225.378C74.0563 225.378 75.383 224.046 75.383 222.27C75.383 220.495 74.0563 219.163 72.2874 219.163Z" fill="#FF6700"/>
<path d="M69.4102 190.089C69.4102 191.643 70.7369 192.974 72.2847 192.974C73.8325 192.974 75.1592 191.643 75.1592 190.089C75.1592 188.535 73.8325 187.203 72.2847 187.203C70.7369 187.203 69.4102 188.535 69.4102 190.089Z" fill="#FF6700"/>
<path d="M72.2874 194.969C69.634 194.969 67.4229 192.749 67.4229 190.085C67.4229 187.422 69.634 185.202 72.2874 185.202C74.9408 185.202 77.152 187.422 77.152 190.085C77.152 192.971 74.9408 194.969 72.2874 194.969ZM72.2874 186.978C70.5185 186.978 69.1918 188.31 69.1918 190.085C69.1918 191.861 70.5185 193.193 72.2874 193.193C74.0563 193.193 75.383 191.861 75.383 190.085C75.383 188.532 74.0563 186.978 72.2874 186.978Z" fill="#FF6700"/>
<path d="M142.819 168.554C144.406 168.554 145.693 167.262 145.693 165.668C145.693 164.074 144.406 162.782 142.819 162.782C141.231 162.782 139.944 164.074 139.944 165.668C139.944 167.262 141.231 168.554 142.819 168.554Z" fill="#FF6700"/>
<path d="M142.822 170.551C140.168 170.551 137.957 168.331 137.957 165.667C137.957 163.004 140.168 160.784 142.822 160.784C145.475 160.784 147.686 163.004 147.686 165.667C147.686 168.331 145.475 170.551 142.822 170.551ZM142.822 162.56C141.053 162.56 139.726 163.892 139.726 165.667C139.726 167.443 141.053 168.775 142.822 168.775C144.591 168.775 145.917 167.443 145.917 165.667C145.917 163.892 144.591 162.56 142.822 162.56Z" fill="#FF6700"/>
<path d="M139.944 213.39C139.944 214.943 141.271 216.275 142.819 216.275C144.367 216.275 145.693 214.943 145.693 213.39C145.693 211.836 144.367 210.504 142.819 210.504C141.271 210.504 139.944 211.614 139.944 213.39Z" fill="#FF6700"/>
<path d="M142.822 218.273C140.168 218.273 137.957 216.053 137.957 213.389C137.957 210.726 140.168 208.506 142.822 208.506C145.475 208.506 147.686 210.726 147.686 213.389C147.686 216.053 145.475 218.273 142.822 218.273ZM142.822 210.06C141.053 210.06 139.726 211.392 139.726 213.167C139.726 214.943 141.053 216.275 142.822 216.275C144.591 216.275 145.917 214.943 145.917 213.167C145.917 211.614 144.591 210.06 142.822 210.06Z" fill="#FF6700"/>
<path d="M142.819 244.466C144.406 244.466 145.693 243.174 145.693 241.58C145.693 239.987 144.406 238.695 142.819 238.695C141.231 238.695 139.944 239.987 139.944 241.58C139.944 243.174 141.231 244.466 142.819 244.466Z" fill="#FF6700"/>
<path d="M142.822 246.462C140.168 246.462 137.957 244.243 137.957 241.579C137.957 238.916 140.168 236.696 142.822 236.696C145.475 236.696 147.686 238.916 147.686 241.579C147.686 244.243 145.475 246.462 142.822 246.462ZM142.822 238.25C141.053 238.25 139.726 239.581 139.726 241.357C139.726 243.133 141.053 244.465 142.822 244.465C144.591 244.465 145.917 243.133 145.917 241.357C145.917 239.803 144.591 238.25 142.822 238.25Z" fill="#FF6700"/>
<path d="M213.356 216.497C214.943 216.497 216.23 215.205 216.23 213.611C216.23 212.017 214.943 210.725 213.356 210.725C211.768 210.725 210.481 212.017 210.481 213.611C210.481 215.205 211.768 216.497 213.356 216.497Z" fill="#FF6700"/>
<path d="M213.356 218.494C210.702 218.494 208.491 216.274 208.491 213.611C208.491 210.947 210.702 208.727 213.356 208.727C216.009 208.727 218.22 210.947 218.22 213.611C218.22 216.274 216.009 218.494 213.356 218.494ZM213.356 210.503C211.587 210.503 210.26 211.835 210.26 213.611C210.26 215.386 211.587 216.718 213.356 216.718C215.125 216.718 216.451 215.386 216.451 213.611C216.451 211.835 214.904 210.503 213.356 210.503Z" fill="#FF6700"/>
<path d="M210.481 156.791C210.481 158.345 211.808 159.676 213.356 159.676C214.904 159.676 216.23 158.345 216.23 156.791C216.23 155.237 214.904 153.905 213.356 153.905C211.808 153.905 210.481 155.237 210.481 156.791Z" fill="#FF6700"/>
<path d="M213.356 161.674C210.702 161.674 208.491 159.454 208.491 156.79C208.491 154.127 210.702 151.907 213.356 151.907C216.009 151.907 218.22 154.127 218.22 156.79C218.22 159.454 216.009 161.674 213.356 161.674ZM213.356 153.683C211.587 153.683 210.26 155.015 210.26 156.79C210.26 158.566 211.587 159.898 213.356 159.898C215.125 159.898 216.451 158.566 216.451 156.79C216.451 155.015 214.904 153.683 213.356 153.683Z" fill="#FF6700"/>
<path d="M213.356 109.958C214.943 109.958 216.23 108.666 216.23 107.072C216.23 105.478 214.943 104.187 213.356 104.187C211.768 104.187 210.481 105.478 210.481 107.072C210.481 108.666 211.768 109.958 213.356 109.958Z" fill="#FF6700"/>
<path d="M213.356 111.953C210.702 111.953 208.491 109.734 208.491 107.07C208.491 104.406 210.702 102.187 213.356 102.187C216.009 102.187 218.22 104.406 218.22 107.07C218.22 109.734 216.009 111.953 213.356 111.953ZM213.356 103.962C211.587 103.962 210.26 105.294 210.26 107.07C210.26 108.846 211.587 110.177 213.356 110.177C215.125 110.177 216.451 108.846 216.451 107.07C216.451 105.294 214.904 103.962 213.356 103.962Z" fill="#FF6700"/>
<path d="M283.89 134.815C285.478 134.815 286.765 133.523 286.765 131.929C286.765 130.335 285.478 129.043 283.89 129.043C282.303 129.043 281.016 130.335 281.016 131.929C281.016 133.523 282.303 134.815 283.89 134.815Z" fill="#FF6700"/>
<path d="M283.892 136.813C281.239 136.813 279.027 134.593 279.027 131.929C279.027 129.266 281.239 127.046 283.892 127.046C286.545 127.046 288.756 129.266 288.756 131.929C288.756 134.593 286.545 136.813 283.892 136.813ZM283.892 128.822C282.123 128.822 280.796 130.153 280.796 131.929C280.796 133.705 282.123 135.037 283.892 135.037C285.661 135.037 286.988 133.705 286.988 131.929C286.988 130.153 285.661 128.822 283.892 128.822Z" fill="#FF6700"/>
<path d="M281.016 164.335C281.016 165.889 282.342 167.221 283.89 167.221C285.438 167.221 286.765 165.889 286.765 164.335C286.765 162.782 285.438 161.45 283.89 161.45C282.342 161.45 281.016 162.782 281.016 164.335Z" fill="#FF6700"/>
<path d="M283.892 169.217C281.239 169.217 279.027 166.997 279.027 164.334C279.027 161.67 281.239 159.45 283.892 159.45C286.545 159.45 288.756 161.67 288.756 164.334C288.756 166.997 286.545 169.217 283.892 169.217ZM283.892 161.226C282.123 161.226 280.796 162.558 280.796 164.334C280.796 166.11 282.123 167.441 283.892 167.441C285.661 167.441 286.988 166.11 286.988 164.334C286.988 162.558 285.661 161.226 283.892 161.226Z" fill="#FF6700"/>
<path d="M280.797 222.493C280.797 224.047 282.124 225.378 283.671 225.378C285.219 225.378 286.546 224.047 286.546 222.493C286.546 220.939 285.219 219.607 283.671 219.607C282.124 219.607 280.797 220.717 280.797 222.493Z" fill="#FF6700"/>
<path d="M283.674 227.376C281.021 227.376 278.81 225.156 278.81 222.492C278.81 219.829 281.021 217.609 283.674 217.609C286.327 217.609 288.539 219.829 288.539 222.492C288.76 225.156 286.549 227.376 283.674 227.376ZM283.674 219.163C281.905 219.163 280.578 220.495 280.578 222.271C280.578 224.046 281.905 225.378 283.674 225.378C285.443 225.378 286.77 224.046 286.77 222.271C286.77 220.495 285.443 219.163 283.674 219.163Z" fill="#FF6700"/>
<path d="M354.208 208.067C355.795 208.067 357.082 206.775 357.082 205.181C357.082 203.587 355.795 202.295 354.208 202.295C352.62 202.295 351.333 203.587 351.333 205.181C351.333 206.775 352.62 208.067 354.208 208.067Z" fill="#FF6700"/>
<path d="M354.209 210.06C351.556 210.06 349.345 207.841 349.345 205.177C349.345 202.513 351.556 200.294 354.209 200.294C356.863 200.294 359.074 202.513 359.074 205.177C359.074 207.841 356.863 210.06 354.209 210.06ZM354.209 202.069C352.44 202.069 351.114 203.401 351.114 205.177C351.114 206.953 352.44 208.285 354.209 208.285C355.978 208.285 357.305 206.953 357.305 205.177C357.305 203.401 355.978 202.069 354.209 202.069Z" fill="#FF6700"/>
<path d="M354.208 173.658C355.795 173.658 357.082 172.366 357.082 170.773C357.082 169.179 355.795 167.887 354.208 167.887C352.62 167.887 351.333 169.179 351.333 170.773C351.333 172.366 352.62 173.658 354.208 173.658Z" fill="#FF6700"/>
<path d="M354.209 175.655C351.556 175.655 349.345 173.435 349.345 170.772C349.345 168.108 351.556 165.888 354.209 165.888C356.863 165.888 359.074 168.108 359.074 170.772C359.074 173.435 356.863 175.655 354.209 175.655ZM354.209 167.664C352.44 167.664 351.114 168.996 351.114 170.772C351.114 172.547 352.44 173.879 354.209 173.879C355.978 173.879 357.305 172.547 357.305 170.772C357.305 168.996 355.978 167.664 354.209 167.664Z" fill="#FF6700"/>
<path d="M354.208 109.29C355.795 109.29 357.082 107.998 357.082 106.405C357.082 104.811 355.795 103.519 354.208 103.519C352.62 103.519 351.333 104.811 351.333 106.405C351.333 107.998 352.62 109.29 354.208 109.29Z" fill="#FF6700"/>
<path d="M354.209 111.287C351.556 111.287 349.345 109.067 349.345 106.403C349.345 103.74 351.556 101.52 354.209 101.52C356.863 101.52 359.074 103.74 359.074 106.403C359.074 109.067 356.863 111.287 354.209 111.287ZM354.209 103.296C352.44 103.296 351.114 104.628 351.114 106.403C351.114 108.179 352.44 109.511 354.209 109.511C355.978 109.511 357.305 108.179 357.305 106.403C357.305 104.628 355.978 103.296 354.209 103.296Z" fill="#FF6700"/>
<path d="M421.868 49.8016C421.868 51.3554 423.195 52.6872 424.743 52.6872C426.29 52.6872 427.617 51.3554 427.617 49.8016C427.617 48.2478 426.29 46.916 424.743 46.916C423.195 46.916 421.868 48.0259 421.868 49.8016Z" fill="#FF6700"/>
<path d="M424.744 54.6822C422.091 54.6822 419.88 52.4625 419.88 49.7989C419.88 47.1352 422.091 44.9155 424.744 44.9155C427.398 44.9155 429.609 47.1352 429.609 49.7989C429.609 52.4625 427.398 54.6822 424.744 54.6822ZM424.744 46.4693C422.976 46.4693 421.649 47.8011 421.649 49.5769C421.649 51.3527 422.976 52.6845 424.744 52.6845C426.513 52.6845 427.84 51.3527 427.84 49.5769C427.84 47.8011 426.513 46.4693 424.744 46.4693Z" fill="#FF6700"/>
<path d="M424.743 117.502C426.33 117.502 427.617 116.21 427.617 114.616C427.617 113.022 426.33 111.73 424.743 111.73C423.155 111.73 421.868 113.022 421.868 114.616C421.868 116.21 423.155 117.502 424.743 117.502Z" fill="#FF6700"/>
<path d="M424.744 119.496C422.091 119.496 419.88 117.276 419.88 114.612C419.88 111.949 422.091 109.729 424.744 109.729C427.398 109.729 429.609 111.949 429.609 114.612C429.609 117.276 427.398 119.496 424.744 119.496ZM424.744 111.505C422.976 111.505 421.649 112.837 421.649 114.612C421.649 116.388 422.976 117.72 424.744 117.72C426.513 117.72 427.84 116.388 427.84 114.612C427.84 112.837 426.513 111.505 424.744 111.505Z" fill="#FF6700"/>
<path d="M424.743 201.184C426.33 201.184 427.617 199.892 427.617 198.298C427.617 196.704 426.33 195.412 424.743 195.412C423.155 195.412 421.868 196.704 421.868 198.298C421.868 199.892 423.155 201.184 424.743 201.184Z" fill="#FF6700"/>
<path d="M424.744 203.178C422.091 203.178 419.88 200.958 419.88 198.294C419.88 195.631 422.091 193.411 424.744 193.411C427.398 193.411 429.609 195.631 429.609 198.294C429.609 200.958 427.398 203.178 424.744 203.178ZM424.744 195.187C422.976 195.187 421.649 196.518 421.649 198.294C421.649 200.07 422.976 201.402 424.744 201.402C426.513 201.402 427.84 200.07 427.84 198.294C427.84 196.518 426.513 195.187 424.744 195.187Z" fill="#FF6700"/>
<path d="M495.061 146.358C496.649 146.358 497.936 145.066 497.936 143.473C497.936 141.879 496.649 140.587 495.061 140.587C493.474 140.587 492.187 141.879 492.187 143.473C492.187 145.066 493.474 146.358 495.061 146.358Z" fill="#FF6700"/>
<path d="M495.064 148.353C492.41 148.353 490.199 146.133 490.199 143.47C490.199 140.806 492.41 138.586 495.064 138.586C497.717 138.586 499.928 140.806 499.928 143.47C500.149 146.133 497.938 148.353 495.064 148.353ZM495.064 140.362C493.295 140.362 491.968 141.694 491.968 143.47C491.968 145.246 493.295 146.577 495.064 146.577C496.833 146.577 498.159 145.246 498.159 143.47C498.381 141.694 496.833 140.362 495.064 140.362Z" fill="#FF6700"/>
<path d="M495.061 93.9685C496.649 93.9685 497.936 92.6766 497.936 91.0829C497.936 89.4892 496.649 88.1973 495.061 88.1973C493.474 88.1973 492.187 89.4892 492.187 91.0829C492.187 92.6766 493.474 93.9685 495.061 93.9685Z" fill="#FF6700"/>
<path d="M495.064 95.9664C492.41 95.9664 490.199 93.7467 490.199 91.083C490.199 88.4194 492.41 86.1997 495.064 86.1997C497.717 86.1997 499.928 88.4194 499.928 91.083C500.149 93.7467 497.938 95.9664 495.064 95.9664ZM495.064 87.9755C493.295 87.9755 491.968 89.3073 491.968 91.083C491.968 92.8588 493.295 94.1906 495.064 94.1906C496.833 94.1906 498.159 92.8588 498.159 91.083C498.381 89.3073 496.833 87.9755 495.064 87.9755Z" fill="#FF6700"/>
<path d="M495.062 69.3352C496.65 69.3352 497.937 68.0433 497.937 66.4496C497.937 64.8559 496.65 63.564 495.062 63.564C493.474 63.564 492.188 64.8559 492.188 66.4496C492.188 68.0433 493.474 69.3352 495.062 69.3352Z" fill="#FF6700"/>
<path d="M495.064 71.3297C492.41 71.3297 490.199 69.11 490.199 66.4463C490.199 63.7827 492.41 61.563 495.064 61.563C497.717 61.563 499.928 63.7827 499.928 66.4463C500.149 69.11 497.938 71.3297 495.064 71.3297ZM495.064 63.3387C493.295 63.3387 491.968 64.6706 491.968 66.4463C491.968 68.2221 493.295 69.5539 495.064 69.5539C496.833 69.5539 498.159 68.2221 498.159 66.4463C498.381 64.6706 496.833 63.3387 495.064 63.3387Z" fill="#FF6700"/>
<path opacity="0.7" d="M1.97168 227.595L72.2867 241.801L142.823 213.611L213.359 106.621L283.674 132.148L354.21 106.621L424.746 50.0188L495.061 66.6666L572.673 25.1582V270.213H1.97168V227.595Z" fill="url(#paint2_linear)"/>
</g>
</mask>
<g mask="url(#mask0)">
<rect x="184.768" y="-28.8726" width="297.934" height="299.157" fill="#FF6700"/>
</g>
<defs>
<linearGradient id="paint0_linear" x1="287.282" y1="270.134" x2="287.282" y2="142.798" gradientUnits="userSpaceOnUse">
<stop stop-color="#FF6700"/>
<stop offset="1" stop-color="#FF6700" stop-opacity="0"/>
</linearGradient>
<linearGradient id="paint1_linear" x1="287.284" y1="270.139" x2="287.284" y2="1.32035" gradientUnits="userSpaceOnUse">
<stop stop-color="#FF6700"/>
<stop offset="1" stop-color="#FF6700" stop-opacity="0"/>
</linearGradient>
<linearGradient id="paint2_linear" x1="287.283" y1="270.133" x2="287.283" y2="25.1893" gradientUnits="userSpaceOnUse">
<stop stop-color="#FF6700"/>
<stop offset="1" stop-color="#FF6700" stop-opacity="0"/>
</linearGradient>
<clipPath id="clip0">
<rect width="573.354" height="270.137" fill="white" transform="translate(0.645508 0.078125)"/>
</clipPath>
</defs>
</svg>
