<svg width="27" height="27" viewBox="0 0 27 27" fill="none" xmlns="http://www.w3.org/2000/svg">
<path fill-rule="evenodd" clip-rule="evenodd" d="M13.5 0C6.04144 0 0 6.19547 0 13.8442C0 19.9632 3.87017 25.1473 9.23204 26.983C9.90331 27.1105 10.1519 26.6856 10.1519 26.3116C10.1519 25.9802 10.1436 25.1133 10.1354 23.9575C6.38121 24.7904 5.58563 22.1048 5.58563 22.1048C4.97237 20.5071 4.08563 20.0737 4.08563 20.0737C2.85912 19.2153 4.1768 19.2323 4.1768 19.2323C5.52762 19.3343 6.24862 20.6601 6.24862 20.6601C7.45028 22.7762 9.40608 22.1643 10.1768 21.8074C10.3011 20.915 10.6492 20.3031 11.0304 19.9547C8.03867 19.6147 4.8895 18.4249 4.8895 13.1218C4.8895 11.6091 5.4116 10.3768 6.28177 9.40793C6.14088 9.05099 5.6768 7.64873 6.40608 5.74504C6.40608 5.74504 7.54144 5.37111 10.1188 7.16431C11.1961 6.85836 12.3481 6.70538 13.5 6.69688C14.6436 6.70538 15.8039 6.85836 16.8812 7.16431C19.4586 5.37111 20.5939 5.74504 20.5939 5.74504C21.3315 7.64873 20.8674 9.05949 20.7265 9.40793C21.5884 10.3768 22.1105 11.6091 22.1105 13.1218C22.1105 18.4419 18.953 19.6062 15.9447 19.9547C16.4254 20.3796 16.8646 21.2295 16.8646 22.5212C16.8646 24.3739 16.8481 25.8612 16.8481 26.3201C16.8481 26.694 17.0884 27.119 17.7762 26.983C23.1381 25.1473 27 19.9632 27 13.8527C27 6.19547 20.9586 0 13.5 0Z" fill="white"/>
</svg>
