<svg width="27" height="23" viewBox="0 0 27 23" fill="none" xmlns="http://www.w3.org/2000/svg">
<g clip-path="url(#clip0)">
<path fill-rule="evenodd" clip-rule="evenodd" d="M20.7041 22.5042C21.0597 22.7598 21.5265 22.8153 21.9377 22.6709C22.3489 22.5153 22.649 22.1596 22.7379 21.7373C23.7048 17.1918 26.0498 5.70036 26.9277 1.57721C26.9944 1.26603 26.8833 0.943732 26.6388 0.732574C26.3943 0.521415 26.0609 0.465847 25.7608 0.576983C21.0931 2.29959 6.74541 7.6897 0.877416 9.85685C0.510666 9.99022 0.266167 10.357 0.27728 10.7459C0.288394 11.1349 0.555121 11.4794 0.932984 11.5906C3.56691 12.3796 7.01213 13.4688 7.01213 13.4688C7.01213 13.4688 8.62361 18.3477 9.46824 20.826C9.57938 21.1372 9.81277 21.3817 10.1351 21.4706C10.4574 21.5595 10.8019 21.4706 11.0353 21.2372C12.3911 19.9591 14.4805 17.992 14.4805 17.992C14.4805 17.992 18.4592 20.9038 20.7041 22.5042ZM8.46802 12.8575L10.3351 19.0145L10.7463 15.1136C10.7463 15.1136 17.9591 8.61213 22.0711 4.90018C22.1933 4.78904 22.2045 4.61123 22.1044 4.47786C22.0044 4.35561 21.8266 4.32227 21.6821 4.41118C16.9255 7.45631 8.46802 12.8575 8.46802 12.8575Z" fill="white"/>
</g>
<defs>
<clipPath id="clip0">
<rect width="26.6727" height="22.2272" fill="white" transform="translate(0.277222 0.521484)"/>
</clipPath>
</defs>
</svg>
