<svg width="28" height="22" viewBox="0 0 28 22" fill="none" xmlns="http://www.w3.org/2000/svg">
<path d="M27.3097 2.75437C26.3284 3.19002 25.2737 3.48342 24.1668 3.61567C25.297 2.93885 26.165 1.86639 26.5729 0.588323C25.516 1.21513 24.3446 1.67079 23.0976 1.9164C22.1008 0.852827 20.6771 0.188232 19.1034 0.188232C15.5704 0.188232 12.9743 3.48453 13.7722 6.90642C9.22563 6.67859 5.19361 4.50032 2.49411 1.18957C1.06045 3.64901 1.75061 6.86641 4.18671 8.49566C3.29096 8.46677 2.44632 8.22116 1.70949 7.81107C1.64947 10.3461 3.46655 12.7177 6.09826 13.2456C5.32808 13.4546 4.48456 13.5035 3.62659 13.339C4.3223 15.5128 6.34276 17.0943 8.73885 17.1387C6.43833 18.9425 3.5399 19.7482 0.637024 19.4059C3.05868 20.9585 5.936 21.8642 9.02558 21.8642C19.1857 21.8642 24.9258 13.2834 24.5791 5.58723C25.6482 4.81483 26.5762 3.85128 27.3097 2.75437V2.75437Z" fill="white"/>
</svg>
