<svg width="1280" height="607" viewBox="0 0 1280 607" fill="none" xmlns="http://www.w3.org/2000/svg">
<mask id="mask0" mask-type="alpha" maskUnits="userSpaceOnUse" x="-9" y="0" width="1294" height="607">
<g clip-path="url(#clip0)">
<path d="M152.705 546.151H152.206L-6.93999 514.23C-8.43666 513.732 -8.93555 512.235 -8.93555 510.739C-8.43666 509.243 -7.43888 508.245 -5.44332 508.744L152.705 540.166L310.354 477.322L469.001 237.414C469.5 236.417 470.996 235.918 472.493 236.417L630.641 293.775L788.29 236.417L946.937 109.73C947.436 109.231 948.434 109.231 949.431 109.231L1107.58 146.639L1281.69 53.868C1283.19 53.3693 1284.69 53.868 1285.68 54.8656C1286.18 56.3619 1285.68 57.8582 1284.69 58.8557L1109.58 152.125C1109.08 152.624 1108.08 152.624 1107.58 152.624L949.93 115.216L791.782 241.405C791.782 241.405 791.284 241.903 790.785 241.903L630.641 299.262C630.142 299.262 629.144 299.262 628.645 299.262L471.994 242.402L314.345 481.312C313.846 481.81 313.347 481.81 312.848 482.309L153.702 545.653C153.702 546.151 153.204 546.151 152.705 546.151Z" fill="#FF6700"/>
<path d="M-5.94947 577.58C-6.44836 577.58 -7.44614 577.081 -7.94502 576.583C-8.9428 575.585 -8.9428 573.59 -7.94502 572.592L150.702 423.96C151.7 422.962 153.196 422.962 154.194 423.96L311.843 540.173L469.991 476.829L628.638 366.103C629.137 365.604 629.636 365.604 630.634 365.604L789.281 381.564H789.78L946.93 442.414L1105.08 318.221C1105.58 317.722 1106.57 317.722 1107.57 317.722L1282.68 359.619C1284.18 360.117 1285.18 361.614 1284.68 363.11C1284.18 364.606 1282.68 365.604 1281.19 365.105L1107.57 323.707L949.424 447.9C948.426 448.898 947.429 448.898 946.431 448.399L788.283 387.051L630.634 371.09L472.486 481.817L312.841 545.659C311.843 546.158 310.845 545.659 310.347 545.16L153.196 429.446L-3.95391 577.081C-4.95169 577.58 -5.45058 577.58 -5.94947 577.58Z" fill="#FF6700"/>
<path opacity="0.7" d="M-5.94141 575.075L152.705 425.943L311.851 543.153L470.997 479.81L629.644 368.585L788.79 384.047L947.437 445.894L1106.58 320.703L1281.69 362.6V606.996H-5.94141V575.075Z" fill="url(#paint0_linear)"/>
<path d="M629.648 502.253C629.149 502.253 628.151 501.754 627.652 501.754L470.003 355.616L312.853 374.569L154.705 501.754C153.707 502.253 152.709 502.752 151.712 502.253L-6.93521 440.406C-8.43188 439.907 -9.42966 438.411 -8.93077 436.915C-8.43188 435.418 -6.93521 434.92 -5.43854 435.418L152.211 496.268L310.359 370.08C310.359 369.581 310.857 369.581 311.356 369.082L470.502 349.63C471.5 349.63 471.999 349.63 472.498 350.129L630.646 496.268L787.297 458.86L945.445 254.865C945.944 254.366 946.443 253.867 946.942 253.867L1105.09 201.496L1279.7 0.493192C1280.7 -0.504343 1282.69 -1.00311 1283.69 -0.00557518C1284.69 0.99196 1285.19 2.98703 1284.19 3.98456L1109.08 205.985C1108.58 206.484 1108.58 206.484 1108.08 206.983L949.436 259.353L790.789 463.349C790.789 463.848 790.29 464.347 789.293 464.347L630.147 502.253C630.147 502.253 630.147 502.253 629.648 502.253Z" fill="#FF6700"/>
<path opacity="0.7" d="M-5.9375 437.926L152.709 499.773L311.855 372.088L471.001 352.637L629.648 499.773L788.794 461.867L947.939 256.873L1106.59 204.503L1281.7 3.00049V607.008H-5.9375V437.926Z" fill="url(#paint1_linear)"/>
<path d="M152.7 550.137C156.282 550.137 159.186 547.234 159.186 543.653C159.186 540.072 156.282 537.169 152.7 537.169C149.119 537.169 146.215 540.072 146.215 543.653C146.215 547.234 149.119 550.137 152.7 550.137Z" fill="#FF6700"/>
<path d="M152.704 554.623C146.717 554.623 141.729 549.636 141.729 543.651C141.729 537.665 146.717 532.678 152.704 532.678C158.691 532.678 163.68 537.665 163.68 543.651C163.68 549.636 158.691 554.623 152.704 554.623ZM152.704 536.169C148.713 536.169 145.72 539.162 145.72 543.152C145.72 547.142 148.713 550.135 152.704 550.135C156.695 550.135 159.689 547.142 159.689 543.152C159.689 539.162 156.695 536.169 152.704 536.169Z" fill="#FF6700"/>
<path d="M146.215 499.267C146.215 502.759 149.208 505.751 152.7 505.751C156.193 505.751 159.186 502.759 159.186 499.267C159.186 495.776 156.193 492.783 152.7 492.783C149.208 492.783 146.215 495.776 146.215 499.267Z" fill="#FF6700"/>
<path d="M152.704 510.24C146.717 510.24 141.729 505.252 141.729 499.267C141.729 493.282 146.717 488.294 152.704 488.294C158.691 488.294 163.68 493.282 163.68 499.267C163.68 505.252 158.691 510.24 152.704 510.24ZM152.704 492.284C148.713 492.284 145.72 495.277 145.72 499.267C145.72 503.257 148.713 506.25 152.704 506.25C156.695 506.25 159.689 503.257 159.689 499.267C159.689 495.277 156.695 492.284 152.704 492.284Z" fill="#FF6700"/>
<path d="M146.215 426.955C146.215 430.446 149.208 433.439 152.7 433.439C156.193 433.439 159.186 430.446 159.186 426.955C159.186 423.463 156.193 420.471 152.7 420.471C149.208 420.471 146.215 423.463 146.215 426.955Z" fill="#FF6700"/>
<path d="M152.704 437.921C146.717 437.921 141.729 432.933 141.729 426.948C141.729 420.963 146.717 415.975 152.704 415.975C158.691 415.975 163.68 420.963 163.68 426.948C163.68 433.432 158.691 437.921 152.704 437.921ZM152.704 419.965C148.713 419.965 145.72 422.958 145.72 426.948C145.72 430.938 148.713 433.931 152.704 433.931C156.695 433.931 159.689 430.938 159.689 426.948C159.689 423.457 156.695 419.965 152.704 419.965Z" fill="#FF6700"/>
<path d="M311.839 378.566C315.421 378.566 318.325 375.663 318.325 372.082C318.325 368.501 315.421 365.598 311.839 365.598C308.257 365.598 305.354 368.501 305.354 372.082C305.354 375.663 308.257 378.566 311.839 378.566Z" fill="#FF6700"/>
<path d="M311.843 383.053C305.856 383.053 300.867 378.065 300.867 372.08C300.867 366.095 305.856 361.107 311.843 361.107C317.829 361.107 322.818 366.095 322.818 372.08C322.818 378.065 317.829 383.053 311.843 383.053ZM311.843 365.097C307.852 365.097 304.858 368.09 304.858 372.08C304.858 376.07 307.852 379.063 311.843 379.063C315.834 379.063 318.827 376.07 318.827 372.08C318.827 368.09 315.834 365.097 311.843 365.097Z" fill="#FF6700"/>
<path d="M305.354 479.313C305.354 482.804 308.347 485.797 311.839 485.797C315.331 485.797 318.325 482.804 318.325 479.313C318.325 475.822 315.331 472.829 311.839 472.829C308.347 472.829 305.354 475.323 305.354 479.313Z" fill="#FF6700"/>
<path d="M311.843 490.285C305.856 490.285 300.867 485.297 300.867 479.312C300.867 473.327 305.856 468.339 311.843 468.339C317.829 468.339 322.818 473.327 322.818 479.312C322.818 485.297 317.829 490.285 311.843 490.285ZM311.843 471.831C307.852 471.831 304.858 474.823 304.858 478.813C304.858 482.804 307.852 485.796 311.843 485.796C315.834 485.796 318.827 482.804 318.827 478.813C318.827 475.322 315.834 471.831 311.843 471.831Z" fill="#FF6700"/>
<path d="M311.839 549.141C315.421 549.141 318.325 546.238 318.325 542.657C318.325 539.076 315.421 536.173 311.839 536.173C308.257 536.173 305.354 539.076 305.354 542.657C305.354 546.238 308.257 549.141 311.839 549.141Z" fill="#FF6700"/>
<path d="M311.843 553.627C305.856 553.627 300.867 548.64 300.867 542.655C300.867 536.669 305.856 531.682 311.843 531.682C317.829 531.682 322.818 536.669 322.818 542.655C322.818 548.64 317.829 553.627 311.843 553.627ZM311.843 535.173C307.852 535.173 304.858 538.166 304.858 542.156C304.858 546.146 307.852 549.139 311.843 549.139C315.834 549.139 318.827 546.146 318.827 542.156C318.827 538.664 315.834 535.173 311.843 535.173Z" fill="#FF6700"/>
<path d="M470.986 486.293C474.567 486.293 477.471 483.39 477.471 479.809C477.471 476.228 474.567 473.325 470.986 473.325C467.404 473.325 464.5 476.228 464.5 479.809C464.5 483.39 467.404 486.293 470.986 486.293Z" fill="#FF6700"/>
<path d="M470.989 490.781C465.003 490.781 460.014 485.793 460.014 479.808C460.014 473.823 465.003 468.835 470.989 468.835C476.976 468.835 481.965 473.823 481.965 479.808C481.965 485.793 476.976 490.781 470.989 490.781ZM470.989 472.825C466.998 472.825 464.005 475.818 464.005 479.808C464.005 483.798 466.998 486.791 470.989 486.791C474.98 486.791 477.974 483.798 477.974 479.808C477.974 475.818 474.481 472.825 470.989 472.825Z" fill="#FF6700"/>
<path d="M464.5 352.135C464.5 355.626 467.493 358.619 470.986 358.619C474.478 358.619 477.471 355.626 477.471 352.135C477.471 348.643 474.478 345.651 470.986 345.651C467.493 345.651 464.5 348.643 464.5 352.135Z" fill="#FF6700"/>
<path d="M470.989 363.106C465.003 363.106 460.014 358.118 460.014 352.133C460.014 346.148 465.003 341.16 470.989 341.16C476.976 341.16 481.965 346.148 481.965 352.133C481.965 358.118 476.976 363.106 470.989 363.106ZM470.989 345.15C466.998 345.15 464.005 348.143 464.005 352.133C464.005 356.123 466.998 359.116 470.989 359.116C474.98 359.116 477.974 356.123 477.974 352.133C477.974 348.143 474.481 345.15 470.989 345.15Z" fill="#FF6700"/>
<path d="M470.986 246.901C474.567 246.901 477.471 243.998 477.471 240.417C477.471 236.836 474.567 233.933 470.986 233.933C467.404 233.933 464.5 236.836 464.5 240.417C464.5 243.998 467.404 246.901 470.986 246.901Z" fill="#FF6700"/>
<path d="M470.989 251.384C465.003 251.384 460.014 246.396 460.014 240.411C460.014 234.426 465.003 229.438 470.989 229.438C476.976 229.438 481.965 234.426 481.965 240.411C481.965 246.396 476.976 251.384 470.989 251.384ZM470.989 233.428C466.998 233.428 464.005 236.421 464.005 240.411C464.005 244.401 466.998 247.394 470.989 247.394C474.98 247.394 477.974 244.401 477.974 240.411C477.974 236.421 474.481 233.428 470.989 233.428Z" fill="#FF6700"/>
<path d="M630.126 302.754C633.708 302.754 636.612 299.851 636.612 296.27C636.612 292.689 633.708 289.786 630.126 289.786C626.544 289.786 623.641 292.689 623.641 296.27C623.641 299.851 626.544 302.754 630.126 302.754Z" fill="#FF6700"/>
<path d="M630.134 307.243C624.147 307.243 619.158 302.256 619.158 296.27C619.158 290.285 624.147 285.297 630.134 285.297C636.12 285.297 641.109 290.285 641.109 296.27C641.109 302.256 636.12 307.243 630.134 307.243ZM630.134 289.288C626.143 289.288 623.149 292.28 623.149 296.27C623.149 300.26 626.143 303.253 630.134 303.253C634.125 303.253 637.118 300.26 637.118 296.27C637.118 292.28 634.125 289.288 630.134 289.288Z" fill="#FF6700"/>
<path d="M623.641 369.086C623.641 372.577 626.634 375.57 630.126 375.57C633.619 375.57 636.612 372.577 636.612 369.086C636.612 365.594 633.619 362.602 630.126 362.602C626.634 362.602 623.641 365.594 623.641 369.086Z" fill="#FF6700"/>
<path d="M630.134 380.056C624.147 380.056 619.158 375.068 619.158 369.083C619.158 363.098 624.147 358.11 630.134 358.11C636.12 358.11 641.109 363.098 641.109 369.083C641.109 375.068 636.12 380.056 630.134 380.056ZM630.134 362.101C626.143 362.101 623.149 365.093 623.149 369.083C623.149 373.073 626.143 376.066 630.134 376.066C634.125 376.066 637.118 373.073 637.118 369.083C637.118 365.093 634.125 362.101 630.134 362.101Z" fill="#FF6700"/>
<path d="M623.152 499.767C623.152 503.258 626.146 506.251 629.638 506.251C633.13 506.251 636.123 503.258 636.123 499.767C636.123 496.275 633.13 493.283 629.638 493.283C626.146 493.283 623.152 495.777 623.152 499.767Z" fill="#FF6700"/>
<path d="M629.645 510.739C623.659 510.739 618.67 505.751 618.67 499.766C618.67 493.781 623.659 488.793 629.645 488.793C635.632 488.793 640.621 493.781 640.621 499.766C641.12 505.751 636.131 510.739 629.645 510.739ZM629.645 492.284C625.654 492.284 622.661 495.277 622.661 499.267C622.661 503.257 625.654 506.25 629.645 506.25C633.637 506.25 636.63 503.257 636.63 499.267C636.63 495.277 633.637 492.284 629.645 492.284Z" fill="#FF6700"/>
<path d="M788.782 467.351C792.364 467.351 795.268 464.448 795.268 460.867C795.268 457.286 792.364 454.383 788.782 454.383C785.201 454.383 782.297 457.286 782.297 460.867C782.297 464.448 785.201 467.351 788.782 467.351Z" fill="#FF6700"/>
<path d="M788.786 471.831C782.799 471.831 777.811 466.844 777.811 460.859C777.811 454.873 782.799 449.886 788.786 449.886C794.773 449.886 799.762 454.873 799.762 460.859C799.762 466.844 794.773 471.831 788.786 471.831ZM788.786 453.876C784.795 453.876 781.802 456.868 781.802 460.859C781.802 464.849 784.795 467.841 788.786 467.841C792.777 467.841 795.771 464.849 795.771 460.859C795.771 456.868 792.777 453.876 788.786 453.876Z" fill="#FF6700"/>
<path d="M788.782 390.036C792.364 390.036 795.268 387.133 795.268 383.552C795.268 379.971 792.364 377.068 788.782 377.068C785.201 377.068 782.297 379.971 782.297 383.552C782.297 387.133 785.201 390.036 788.782 390.036Z" fill="#FF6700"/>
<path d="M788.786 394.521C782.799 394.521 777.811 389.534 777.811 383.549C777.811 377.563 782.799 372.576 788.786 372.576C794.773 372.576 799.762 377.563 799.762 383.549C799.762 389.534 794.773 394.521 788.786 394.521ZM788.786 376.566C784.795 376.566 781.802 379.558 781.802 383.549C781.802 387.539 784.795 390.531 788.786 390.531C792.777 390.531 795.771 387.539 795.771 383.549C795.771 379.558 792.777 376.566 788.786 376.566Z" fill="#FF6700"/>
<path d="M788.782 245.401C792.364 245.401 795.268 242.498 795.268 238.917C795.268 235.336 792.364 232.433 788.782 232.433C785.201 232.433 782.297 235.336 782.297 238.917C782.297 242.498 785.201 245.401 788.782 245.401Z" fill="#FF6700"/>
<path d="M788.786 249.887C782.799 249.887 777.811 244.899 777.811 238.914C777.811 232.929 782.799 227.941 788.786 227.941C794.773 227.941 799.762 232.929 799.762 238.914C799.762 244.899 794.773 249.887 788.786 249.887ZM788.786 231.931C784.795 231.931 781.802 234.924 781.802 238.914C781.802 242.904 784.795 245.897 788.786 245.897C792.777 245.897 795.771 242.904 795.771 238.914C795.771 234.924 792.777 231.931 788.786 231.931Z" fill="#FF6700"/>
<path d="M941.439 111.728C941.439 115.22 944.433 118.212 947.925 118.212C951.417 118.212 954.411 115.22 954.411 111.728C954.411 108.237 951.417 105.244 947.925 105.244C944.433 105.244 941.439 107.738 941.439 111.728Z" fill="#FF6700"/>
<path d="M947.931 122.695C941.944 122.695 936.955 117.708 936.955 111.722C936.955 105.737 941.944 100.75 947.931 100.75C953.917 100.75 958.906 105.737 958.906 111.722C958.906 117.708 953.917 122.695 947.931 122.695ZM947.931 104.241C943.94 104.241 940.946 107.233 940.946 111.224C940.946 115.214 943.94 118.206 947.931 118.206C951.922 118.206 954.915 115.214 954.915 111.224C954.915 107.233 951.922 104.241 947.931 104.241Z" fill="#FF6700"/>
<path d="M947.925 263.852C951.507 263.852 954.411 260.949 954.411 257.368C954.411 253.787 951.507 250.884 947.925 250.884C944.343 250.884 941.439 253.787 941.439 257.368C941.439 260.949 944.343 263.852 947.925 263.852Z" fill="#FF6700"/>
<path d="M947.931 268.332C941.944 268.332 936.955 263.344 936.955 257.359C936.955 251.373 941.944 246.386 947.931 246.386C953.917 246.386 958.906 251.373 958.906 257.359C958.906 263.344 953.917 268.332 947.931 268.332ZM947.931 250.376C943.94 250.376 940.946 253.368 940.946 257.359C940.946 261.349 943.94 264.341 947.931 264.341C951.922 264.341 954.915 261.349 954.915 257.359C954.915 253.368 951.922 250.376 947.931 250.376Z" fill="#FF6700"/>
<path d="M947.925 451.884C951.507 451.884 954.411 448.981 954.411 445.4C954.411 441.819 951.507 438.917 947.925 438.917C944.343 438.917 941.439 441.819 941.439 445.4C941.439 448.981 944.343 451.884 947.925 451.884Z" fill="#FF6700"/>
<path d="M947.931 456.366C941.944 456.366 936.955 451.378 936.955 445.393C936.955 439.408 941.944 434.42 947.931 434.42C953.917 434.42 958.906 439.408 958.906 445.393C958.906 451.378 953.917 456.366 947.931 456.366ZM947.931 438.41C943.94 438.41 940.946 441.403 940.946 445.393C940.946 449.383 943.94 452.376 947.931 452.376C951.922 452.376 954.915 449.383 954.915 445.393C954.915 441.403 951.922 438.41 947.931 438.41Z" fill="#FF6700"/>
<path d="M1106.58 328.691C1110.16 328.691 1113.06 325.788 1113.06 322.207C1113.06 318.626 1110.16 315.723 1106.58 315.723C1103 315.723 1100.09 318.626 1100.09 322.207C1100.09 325.788 1103 328.691 1106.58 328.691Z" fill="#FF6700"/>
<path d="M1106.59 333.174C1100.6 333.174 1095.61 328.187 1095.61 322.201C1095.61 316.216 1100.6 311.229 1106.59 311.229C1112.57 311.229 1117.56 316.216 1117.56 322.201C1118.06 328.187 1113.07 333.174 1106.59 333.174ZM1106.59 315.219C1102.59 315.219 1099.6 318.211 1099.6 322.201C1099.6 326.192 1102.59 329.184 1106.59 329.184C1110.58 329.184 1113.57 326.192 1113.57 322.201C1114.07 318.211 1110.58 315.219 1106.59 315.219Z" fill="#FF6700"/>
<path d="M1106.58 210.972C1110.16 210.972 1113.06 208.069 1113.06 204.488C1113.06 200.907 1110.16 198.004 1106.58 198.004C1103 198.004 1100.09 200.907 1100.09 204.488C1100.09 208.069 1103 210.972 1106.58 210.972Z" fill="#FF6700"/>
<path d="M1106.59 215.461C1100.6 215.461 1095.61 210.474 1095.61 204.488C1095.61 198.503 1100.6 193.516 1106.59 193.516C1112.57 193.516 1117.56 198.503 1117.56 204.488C1118.06 210.474 1113.07 215.461 1106.59 215.461ZM1106.59 197.506C1102.59 197.506 1099.6 200.498 1099.6 204.488C1099.6 208.479 1102.59 211.471 1106.59 211.471C1110.58 211.471 1113.57 208.479 1113.57 204.488C1114.07 200.498 1110.58 197.506 1106.59 197.506Z" fill="#FF6700"/>
<path d="M1106.58 155.621C1110.17 155.621 1113.07 152.718 1113.07 149.137C1113.07 145.556 1110.17 142.653 1106.58 142.653C1103 142.653 1100.1 145.556 1100.1 149.137C1100.1 152.718 1103 155.621 1106.58 155.621Z" fill="#FF6700"/>
<path d="M1106.59 160.103C1100.6 160.103 1095.61 155.115 1095.61 149.13C1095.61 143.145 1100.6 138.157 1106.59 138.157C1112.57 138.157 1117.56 143.145 1117.56 149.13C1118.06 155.115 1113.07 160.103 1106.59 160.103ZM1106.59 142.147C1102.59 142.147 1099.6 145.14 1099.6 149.13C1099.6 153.12 1102.59 156.113 1106.59 156.113C1110.58 156.113 1113.57 153.12 1113.57 149.13C1114.07 145.14 1110.58 142.147 1106.59 142.147Z" fill="#FF6700"/>
<path opacity="0.7" d="M-5.94141 511.231L152.705 543.153L311.851 479.809L470.997 239.403L629.644 296.761L788.79 239.403L947.935 112.217L1106.58 149.625L1281.69 56.3555V606.995H-5.94141V511.231Z" fill="url(#paint2_linear)"/>
</g>
</mask>
<g mask="url(#mask0)">
<rect y="-58" width="1280" height="663" fill="#FF6700"/>
</g>
<defs>
<linearGradient id="paint0_linear" x1="637.786" y1="606.816" x2="637.786" y2="320.693" gradientUnits="userSpaceOnUse">
<stop stop-color="#FF6700"/>
<stop offset="1" stop-color="#FF6700" stop-opacity="0"/>
</linearGradient>
<linearGradient id="paint1_linear" x1="637.79" y1="606.828" x2="637.79" y2="2.79102" gradientUnits="userSpaceOnUse">
<stop stop-color="#FF6700"/>
<stop offset="1" stop-color="#FF6700" stop-opacity="0"/>
</linearGradient>
<linearGradient id="paint2_linear" x1="637.786" y1="606.815" x2="637.786" y2="56.4253" gradientUnits="userSpaceOnUse">
<stop stop-color="#FF6700"/>
<stop offset="1" stop-color="#FF6700" stop-opacity="0"/>
</linearGradient>
<clipPath id="clip0">
<rect width="1293.62" height="607" fill="white" transform="translate(-8.93555)"/>
</clipPath>
</defs>
</svg>
