<svg width="1280" height="540" viewBox="0 0 1280 540" fill="none" xmlns="http://www.w3.org/2000/svg">
<g clip-path="url(#clip0)">
<rect width="1280" height="540" fill="#BEC6FF" fill-opacity="0.3"/>
<path d="M20.8451 142.263H0.00585938V540.079H20.8451V142.263Z" fill="#7C89E4"/>
<path d="M83.3568 227.456H62.5176V540.089H83.3568V227.456Z" fill="#7C89E4"/>
<path d="M145.88 397.81H125.041V540.078H145.88V397.81Z" fill="#7C89E4"/>
<path d="M208.396 284.092H187.557V540.085H208.396V284.092Z" fill="#7C89E4"/>
<path d="M270.911 170.368H250.072V540.087H270.911V170.368Z" fill="#7C89E4"/>
<path d="M333.431 454.898H312.592V540.08H333.431V454.898Z" fill="#7C89E4"/>
<path d="M395.951 56.6411H375.111V540.085H395.951V56.6411Z" fill="#7C89E4"/>
<path d="M458.47 227.456H437.631V540.089H458.47V227.456Z" fill="#7C89E4"/>
<path d="M520.982 469.171H500.143V540.082H520.982V469.171Z" fill="#7C89E4"/>
<path d="M583.501 497.263H562.662V540.077H583.501V497.263Z" fill="#7C89E4"/>
<path d="M646.021 412.08H625.182V540.076H646.021V412.08Z" fill="#7C89E4"/>
<path d="M708.54 170.368H687.701V540.087H708.54V170.368Z" fill="#7C89E4"/>
<path d="M771.058 454.898H750.219V540.08H771.058V454.898Z" fill="#7C89E4"/>
<path d="M833.57 255.99H812.73V540.081H833.57V255.99Z" fill="#7C89E4"/>
<path opacity="0.3" d="M41.6811 369.72H20.8418V540.085H41.6811V369.72Z" fill="#7C89E4"/>
<path opacity="0.3" d="M104.201 113.727H83.3613V540.085H104.201V113.727Z" fill="#7C89E4"/>
<path opacity="0.3" d="M166.718 341.172H145.879V540.08H166.718V341.172Z" fill="#7C89E4"/>
<path opacity="0.3" d="M229.236 483.449H208.396V540.089H229.236V483.449Z" fill="#7C89E4"/>
<path opacity="0.3" d="M291.753 426.358H270.914V540.083H291.753V426.358Z" fill="#7C89E4"/>
<path opacity="0.3" d="M354.269 341.172H333.43V540.08H354.269V341.172Z" fill="#7C89E4"/>
<path opacity="0.3" d="M416.785 369.72H395.945V540.085H416.785V369.72Z" fill="#7C89E4"/>
<path opacity="0.3" d="M479.304 85.1777H458.465V540.079H479.304V85.1777Z" fill="#7C89E4"/>
<path opacity="0.3" d="M541.824 255.99H520.984V540.081H541.824V255.99Z" fill="#7C89E4"/>
<path opacity="0.3" d="M604.343 142.263H583.504V540.079H604.343V142.263Z" fill="#7C89E4"/>
<path opacity="0.3" d="M666.861 284.092H646.021V540.085H666.861V284.092Z" fill="#7C89E4"/>
<path opacity="0.3" d="M729.378 170.368H708.539V540.087H729.378V170.368Z" fill="#7C89E4"/>
<path opacity="0.3" d="M791.896 341.172H771.057V540.08H791.896V341.172Z" fill="#7C89E4"/>
<path opacity="0.5" d="M812.732 397.81H791.893V540.078H812.732V397.81Z" fill="#7C89E4"/>
<path opacity="0.5" d="M750.216 56.6411H729.377V540.085H750.216V56.6411Z" fill="#7C89E4"/>
<path opacity="0.5" d="M687.701 454.898H666.861V540.08H687.701V454.898Z" fill="#7C89E4"/>
<path opacity="0.5" d="M625.177 341.172H604.338V540.08H625.177V341.172Z" fill="#7C89E4"/>
<path opacity="0.5" d="M562.665 0H541.826V540.084H562.665V0Z" fill="#7C89E4"/>
<path opacity="0.5" d="M500.146 397.81H479.307V540.078H500.146V397.81Z" fill="#7C89E4"/>
<path opacity="0.5" d="M437.622 454.898H416.783V540.08H437.622V454.898Z" fill="#7C89E4"/>
<path opacity="0.5" d="M375.111 142.263H354.271V540.079H375.111V142.263Z" fill="#7C89E4"/>
<path opacity="0.5" d="M312.591 497.263H291.752V540.077H312.591V497.263Z" fill="#7C89E4"/>
<path opacity="0.5" d="M250.072 326.909H229.232V540.088H250.072V326.909Z" fill="#7C89E4"/>
<path opacity="0.5" d="M187.556 28.5342H166.717V540.075H187.556V28.5342Z" fill="#7C89E4"/>
<path opacity="0.5" d="M125.037 56.6411H104.197V540.085H125.037V56.6411Z" fill="#7C89E4"/>
<path opacity="0.5" d="M62.519 483.449H41.6797V540.089H62.519V483.449Z" fill="#7C89E4"/>
<path d="M833.839 142.263H813V540.079H833.839V142.263Z" fill="#7C89E4"/>
<path d="M896.351 227.456H875.512V540.089H896.351V227.456Z" fill="#7C89E4"/>
<path d="M958.874 397.81H938.035V540.078H958.874V397.81Z" fill="#7C89E4"/>
<path d="M1021.39 284.092H1000.55V540.085H1021.39V284.092Z" fill="#7C89E4"/>
<path d="M1083.91 170.368H1063.07V540.087H1083.91V170.368Z" fill="#7C89E4"/>
<path d="M1146.43 454.898H1125.59V540.08H1146.43V454.898Z" fill="#7C89E4"/>
<path d="M1208.94 56.6411H1188.11V540.085H1208.94V56.6411Z" fill="#7C89E4"/>
<path d="M1271.46 227.456H1250.62V540.089H1271.46V227.456Z" fill="#7C89E4"/>
<path opacity="0.3" d="M854.675 369.72H833.836V540.085H854.675V369.72Z" fill="#7C89E4"/>
<path opacity="0.3" d="M917.195 113.727H896.355V540.085H917.195V113.727Z" fill="#7C89E4"/>
<path opacity="0.3" d="M979.712 341.172H958.873V540.08H979.712V341.172Z" fill="#7C89E4"/>
<path opacity="0.3" d="M1042.23 483.449H1021.39V540.089H1042.23V483.449Z" fill="#7C89E4"/>
<path opacity="0.3" d="M1104.75 426.358H1083.91V540.083H1104.75V426.358Z" fill="#7C89E4"/>
<path opacity="0.3" d="M1167.26 341.172H1146.42V540.08H1167.26V341.172Z" fill="#7C89E4"/>
<path opacity="0.3" d="M1229.78 369.72H1208.94V540.085H1229.78V369.72Z" fill="#7C89E4"/>
<path opacity="0.3" d="M1292.3 85.1777H1271.46V540.079H1292.3V85.1777Z" fill="#7C89E4"/>
<path opacity="0.5" d="M1250.62 454.898H1229.78V540.08H1250.62V454.898Z" fill="#7C89E4"/>
<path opacity="0.5" d="M1188.1 142.263H1167.27V540.079H1188.1V142.263Z" fill="#7C89E4"/>
<path opacity="0.5" d="M1125.59 497.263H1104.75V540.077H1125.59V497.263Z" fill="#7C89E4"/>
<path opacity="0.5" d="M1063.07 326.909H1042.23V540.088H1063.07V326.909Z" fill="#7C89E4"/>
<path opacity="0.5" d="M1000.55 28.5342H979.711V540.075H1000.55V28.5342Z" fill="#7C89E4"/>
<path opacity="0.5" d="M938.031 56.6411H917.191V540.085H938.031V56.6411Z" fill="#7C89E4"/>
<path opacity="0.5" d="M875.513 483.449H854.674V540.089H875.513V483.449Z" fill="#7C89E4"/>
</g>
<defs>
<clipPath id="clip0">
<rect width="1280" height="540" fill="white"/>
</clipPath>
</defs>
</svg>
