<?xml version="1.0" encoding="utf-8"?>
<!-- Generator: Adobe Illustrator 24.1.2, SVG Export Plug-In . SVG Version: 6.00 Build 0)  -->
<svg version="1.1" id="Слой_1" xmlns="http://www.w3.org/2000/svg" xmlns:xlink="http://www.w3.org/1999/xlink" x="0px" y="0px"
	 viewBox="0 0 466.1 446.4" style="enable-background:new 0 0 466.1 446.4;" xml:space="preserve">
<style type="text/css">
	.st0{filter:url(#Adobe_OpacityMaskFilter);}
	.st1{clip-path:url(#SVGID_2_);fill:#FF6700;}
	.st2{opacity:0.7;clip-path:url(#SVGID_2_);fill:url(#SVGID_3_);enable-background:new    ;}
	.st3{opacity:0.7;clip-path:url(#SVGID_2_);fill:url(#SVGID_4_);enable-background:new    ;}
	.st4{opacity:0.7;clip-path:url(#SVGID_2_);fill:url(#SVGID_5_);enable-background:new    ;}
	.st5{mask:url(#mask0_1_);}
	.st6{fill:#FF6700;}
</style>
<defs>
	<filter id="Adobe_OpacityMaskFilter" filterUnits="userSpaceOnUse" x="0" y="0" width="466.1" height="446.4">
		<feColorMatrix  type="matrix" values="1 0 0 0 0  0 1 0 0 0  0 0 1 0 0  0 0 0 1 0"/>
	</filter>
</defs>
<mask maskUnits="userSpaceOnUse" x="0" y="0" width="466.1" height="446.4" id="mask0_1_">
	<g class="st0">
		<defs>
			<rect id="SVGID_1_" x="-288.1" y="43.2" width="897" height="403.1"/>
		</defs>
		<clipPath id="SVGID_2_">
			<use xlink:href="#SVGID_1_"  style="overflow:visible;"/>
		</clipPath>
		<g>
			<path class="st1" d="M-176,405.9h-0.3l-110.4-21.2c-1-0.3-1.4-1.3-1.4-2.3c0.3-1,1-1.7,2.4-1.3l109.7,20.9l109.3-41.7l110-159.3
				c0.3-0.7,1.4-1,2.4-0.7l109.7,38.1l109.3-38.1l110-84.1c0.3-0.3,1-0.3,1.7-0.3l109.7,24.8L606.9,79c1-0.3,2.1,0,2.8,0.7
				c0.3,1,0,2-0.7,2.6l-121.4,61.9c-0.3,0.3-1,0.3-1.4,0.3l-109.3-24.8l-109.7,83.8c0,0-0.3,0.3-0.7,0.3l-111,38.1c-0.3,0-1,0-1.4,0
				L45.4,204.2L-63.9,362.8c-0.3,0.3-0.7,0.3-1,0.7l-110.4,42.1C-175.3,405.9-175.6,405.9-176,405.9z"/>
			<path class="st1" d="M-286,426.8c-0.3,0-1-0.3-1.4-0.7c-0.7-0.7-0.7-2,0-2.6l110-98.7c0.7-0.7,1.7-0.7,2.4,0l109.3,77.2L44,359.9
				l110-73.5c0.3-0.3,0.7-0.3,1.4-0.3l110,10.6h0.3l109,40.4l109.7-82.5c0.3-0.3,1-0.3,1.7-0.3L607.6,282c1,0.3,1.7,1.3,1.4,2.3
				c-0.3,1-1.4,1.7-2.4,1.3l-120.4-27.5l-109.7,82.5c-0.7,0.7-1.4,0.7-2.1,0.3l-109.7-40.7l-109.3-10.6L45.8,363.2l-110.7,42.4
				c-0.7,0.3-1.4,0-1.7-0.3l-109-76.8l-109,98C-285.3,426.8-285.6,426.8-286,426.8z"/>
			
				<linearGradient id="SVGID_3_" gradientUnits="userSpaceOnUse" x1="160.4443" y1="42.0097" x2="160.4443" y2="232.1317" gradientTransform="matrix(1 0 0 -1 0 488.3059)">
				<stop  offset="0" style="stop-color:#FF6700"/>
				<stop  offset="1" style="stop-color:#FF6700;stop-opacity:0"/>
			</linearGradient>
			<path class="st2" d="M-286,425.1l110-99l110.4,77.8l110.4-42.1l110-73.9l110.4,10.3l110,41.1l110.4-83.1L606.9,284v162.3H-286
				V425.1z"/>
			<path class="st1" d="M154.7,376.7c-0.3,0-1-0.3-1.4-0.3L44,279.4l-109,12.6l-109.7,84.5c-0.7,0.3-1.4,0.7-2.1,0.3l-110-41.1
				c-1-0.3-1.7-1.3-1.4-2.3c0.3-1,1.4-1.3,2.4-1l109.3,40.4L-66.7,289c0-0.3,0.3-0.3,0.7-0.7l110.4-12.9c0.7,0,1,0,1.4,0.3l109.7,97
				l108.6-24.8l109.7-135.5c0.3-0.3,0.7-0.7,1-0.7L484.4,177L605.5,43.5c0.7-0.7,2.1-1,2.8-0.3c0.7,0.7,1,2,0.3,2.6L487.2,180
				c-0.3,0.3-0.3,0.3-0.7,0.7l-110,34.8l-110,135.5c0,0.3-0.3,0.7-1,0.7l-110.4,25.2C155.1,376.7,155.1,376.7,154.7,376.7z"/>
			
				<linearGradient id="SVGID_4_" gradientUnits="userSpaceOnUse" x1="160.4463" y1="42.0017" x2="160.4463" y2="443.113" gradientTransform="matrix(1 0 0 -1 0 488.3059)">
				<stop  offset="0" style="stop-color:#FF6700"/>
				<stop  offset="1" style="stop-color:#FF6700;stop-opacity:0"/>
			</linearGradient>
			<path class="st3" d="M-286,334l110,41.1l110.4-84.8l110.4-12.9l110,97.7l110.4-25.2l110.4-136.1l110-34.8L606.9,45.2v401.1H-286
				V334z"/>
			<path class="st1" d="M-176,408.5c2.5,0,4.5-1.9,4.5-4.3s-2-4.3-4.5-4.3c-2.5,0-4.5,1.9-4.5,4.3S-178.5,408.5-176,408.5z"/>
			<path class="st1" d="M-176,411.5c-4.2,0-7.6-3.3-7.6-7.3s3.5-7.3,7.6-7.3s7.6,3.3,7.6,7.3S-171.8,411.5-176,411.5z M-176,399.3
				c-2.8,0-4.8,2-4.8,4.6s2.1,4.6,4.8,4.6c2.8,0,4.8-2,4.8-4.6S-173.2,399.3-176,399.3z"/>
			<path class="st1" d="M-180.5,374.8c0,2.3,2.1,4.3,4.5,4.3c2.4,0,4.5-2,4.5-4.3c0-2.3-2.1-4.3-4.5-4.3
				C-178.4,370.4-180.5,372.4-180.5,374.8z"/>
			<path class="st1" d="M-176,382c-4.2,0-7.6-3.3-7.6-7.3s3.5-7.3,7.6-7.3s7.6,3.3,7.6,7.3S-171.8,382-176,382z M-176,370.1
				c-2.8,0-4.8,2-4.8,4.6s2.1,4.6,4.8,4.6c2.8,0,4.8-2,4.8-4.6S-173.2,370.1-176,370.1z"/>
			<path class="st1" d="M-180.5,326.7c0,2.3,2.1,4.3,4.5,4.3c2.4,0,4.5-2,4.5-4.3c0-2.3-2.1-4.3-4.5-4.3
				C-178.4,322.4-180.5,324.4-180.5,326.7z"/>
			<path class="st1" d="M-176,334c-4.2,0-7.6-3.3-7.6-7.3s3.5-7.3,7.6-7.3s7.6,3.3,7.6,7.3C-168.4,331-171.8,334-176,334z
				 M-176,322.1c-2.8,0-4.8,2-4.8,4.6s2.1,4.6,4.8,4.6c2.8,0,4.8-2,4.8-4.6C-171.1,324.4-173.2,322.1-176,322.1z"/>
			<path class="st1" d="M-65.6,294.6c2.5,0,4.5-1.9,4.5-4.3c0-2.4-2-4.3-4.5-4.3c-2.5,0-4.5,1.9-4.5,4.3
				C-70.1,292.7-68.1,294.6-65.6,294.6z"/>
			<path class="st1" d="M-65.6,297.6c-4.2,0-7.6-3.3-7.6-7.3s3.5-7.3,7.6-7.3c4.2,0,7.6,3.3,7.6,7.3S-61.5,297.6-65.6,297.6z
				 M-65.6,285.7c-2.8,0-4.8,2-4.8,4.6s2.1,4.6,4.8,4.6c2.8,0,4.8-2,4.8-4.6S-62.9,285.7-65.6,285.7z"/>
			<path class="st1" d="M-70.1,361.5c0,2.3,2.1,4.3,4.5,4.3c2.4,0,4.5-2,4.5-4.3c0-2.3-2.1-4.3-4.5-4.3
				C-68.1,357.2-70.1,358.9-70.1,361.5z"/>
			<path class="st1" d="M-65.6,368.8c-4.2,0-7.6-3.3-7.6-7.3s3.5-7.3,7.6-7.3c4.2,0,7.6,3.3,7.6,7.3S-61.5,368.8-65.6,368.8z
				 M-65.6,356.5c-2.8,0-4.8,2-4.8,4.6c0,2.7,2.1,4.6,4.8,4.6c2.8,0,4.8-2,4.8-4.6C-60.8,358.9-62.9,356.5-65.6,356.5z"/>
			<path class="st1" d="M-65.6,407.9c2.5,0,4.5-1.9,4.5-4.3c0-2.4-2-4.3-4.5-4.3c-2.5,0-4.5,1.9-4.5,4.3
				C-70.1,405.9-68.1,407.9-65.6,407.9z"/>
			<path class="st1" d="M-65.6,410.9c-4.2,0-7.6-3.3-7.6-7.3c0-4,3.5-7.3,7.6-7.3c4.2,0,7.6,3.3,7.6,7.3
				C-58,407.5-61.5,410.9-65.6,410.9z M-65.6,398.6c-2.8,0-4.8,2-4.8,4.6c0,2.6,2.1,4.6,4.8,4.6c2.8,0,4.8-2,4.8-4.6
				C-60.8,400.9-62.9,398.6-65.6,398.6z"/>
			<path class="st1" d="M44.7,366.1c2.5,0,4.5-1.9,4.5-4.3s-2-4.3-4.5-4.3c-2.5,0-4.5,1.9-4.5,4.3S42.2,366.1,44.7,366.1z"/>
			<path class="st1" d="M44.7,369.1c-4.2,0-7.6-3.3-7.6-7.3c0-4,3.5-7.3,7.6-7.3s7.6,3.3,7.6,7.3C52.3,365.8,48.9,369.1,44.7,369.1z
				 M44.7,357.2c-2.8,0-4.8,2-4.8,4.6c0,2.6,2.1,4.6,4.8,4.6c2.8,0,4.8-2,4.8-4.6C49.6,359.2,47.1,357.2,44.7,357.2z"/>
			<path class="st1" d="M40.2,277c0,2.3,2.1,4.3,4.5,4.3c2.4,0,4.5-2,4.5-4.3c0-2.3-2.1-4.3-4.5-4.3C42.3,272.7,40.2,274.7,40.2,277
				z"/>
			<path class="st1" d="M44.7,284.3c-4.2,0-7.6-3.3-7.6-7.3c0-4,3.5-7.3,7.6-7.3s7.6,3.3,7.6,7.3C52.3,281,48.9,284.3,44.7,284.3z
				 M44.7,272.4c-2.8,0-4.8,2-4.8,4.6c0,2.6,2.1,4.6,4.8,4.6c2.8,0,4.8-2,4.8-4.6C49.6,274.4,47.1,272.4,44.7,272.4z"/>
			<path class="st1" d="M44.7,207.2c2.5,0,4.5-1.9,4.5-4.3c0-2.4-2-4.3-4.5-4.3c-2.5,0-4.5,1.9-4.5,4.3
				C40.2,205.2,42.2,207.2,44.7,207.2z"/>
			<path class="st1" d="M44.7,210.1c-4.2,0-7.6-3.3-7.6-7.3s3.5-7.3,7.6-7.3s7.6,3.3,7.6,7.3S48.9,210.1,44.7,210.1z M44.7,198.2
				c-2.8,0-4.8,2-4.8,4.6s2.1,4.6,4.8,4.6c2.8,0,4.8-2,4.8-4.6S47.1,198.2,44.7,198.2z"/>
			<path class="st1" d="M155.1,244.3c2.5,0,4.5-1.9,4.5-4.3s-2-4.3-4.5-4.3c-2.5,0-4.5,1.9-4.5,4.3S152.6,244.3,155.1,244.3z"/>
			<path class="st1" d="M155.1,247.2c-4.2,0-7.6-3.3-7.6-7.3s3.5-7.3,7.6-7.3s7.6,3.3,7.6,7.3S159.2,247.2,155.1,247.2z
				 M155.1,235.3c-2.8,0-4.8,2-4.8,4.6s2.1,4.6,4.8,4.6s4.8-2,4.8-4.6S157.8,235.3,155.1,235.3z"/>
			<path class="st1" d="M150.6,288.3c0,2.3,2.1,4.3,4.5,4.3c2.4,0,4.5-2,4.5-4.3c0-2.3-2.1-4.3-4.5-4.3
				C152.7,284,150.6,286,150.6,288.3z"/>
			<path class="st1" d="M155.1,295.6c-4.2,0-7.6-3.3-7.6-7.3c0-4,3.5-7.3,7.6-7.3s7.6,3.3,7.6,7.3
				C162.7,292.3,159.2,295.6,155.1,295.6z M155.1,283.7c-2.8,0-4.8,2-4.8,4.6c0,2.6,2.1,4.6,4.8,4.6s4.8-2,4.8-4.6
				C159.9,285.7,157.8,283.7,155.1,283.7z"/>
			<path class="st1" d="M150.2,375.1c0,2.3,2.1,4.3,4.5,4.3c2.4,0,4.5-2,4.5-4.3s-2.1-4.3-4.5-4.3
				C152.3,370.8,150.2,372.4,150.2,375.1z"/>
			<path class="st1" d="M154.7,382.4c-4.2,0-7.6-3.3-7.6-7.3c0-4,3.5-7.3,7.6-7.3s7.6,3.3,7.6,7.3
				C162.7,379.1,159.2,382.4,154.7,382.4z M154.7,370.1c-2.8,0-4.8,2-4.8,4.6c0,2.6,2.1,4.6,4.8,4.6c2.8,0,4.8-2,4.8-4.6
				C159.6,372.1,157.5,370.1,154.7,370.1z"/>
			<path class="st1" d="M265.1,353.6c2.5,0,4.5-1.9,4.5-4.3c0-2.4-2-4.3-4.5-4.3s-4.5,1.9-4.5,4.3
				C260.6,351.6,262.6,353.6,265.1,353.6z"/>
			<path class="st1" d="M265.1,356.5c-4.2,0-7.6-3.3-7.6-7.3c0-4,3.5-7.3,7.6-7.3s7.6,3.3,7.6,7.3
				C272.7,353.2,269.2,356.5,265.1,356.5z M265.1,344.6c-2.8,0-4.8,2-4.8,4.6c0,2.6,2.1,4.6,4.8,4.6c2.8,0,4.8-2,4.8-4.6
				C269.9,346.6,267.9,344.6,265.1,344.6z"/>
			<path class="st1" d="M265.1,302.2c2.5,0,4.5-1.9,4.5-4.3s-2-4.3-4.5-4.3s-4.5,1.9-4.5,4.3S262.6,302.2,265.1,302.2z"/>
			<path class="st1" d="M265.1,305.2c-4.2,0-7.6-3.3-7.6-7.3c0-4,3.5-7.3,7.6-7.3s7.6,3.3,7.6,7.3
				C272.7,301.9,269.2,305.2,265.1,305.2z M265.1,293.3c-2.8,0-4.8,2-4.8,4.6s2.1,4.6,4.8,4.6c2.8,0,4.8-2,4.8-4.6
				S267.9,293.3,265.1,293.3z"/>
			<path class="st1" d="M265.1,206.2c2.5,0,4.5-1.9,4.5-4.3c0-2.4-2-4.3-4.5-4.3s-4.5,1.9-4.5,4.3
				C260.6,204.2,262.6,206.2,265.1,206.2z"/>
			<path class="st1" d="M265.1,209.1c-4.2,0-7.6-3.3-7.6-7.3c0-4,3.5-7.3,7.6-7.3s7.6,3.3,7.6,7.3
				C272.7,205.8,269.2,209.1,265.1,209.1z M265.1,197.2c-2.8,0-4.8,2-4.8,4.6c0,2.6,2.1,4.6,4.8,4.6c2.8,0,4.8-2,4.8-4.6
				C269.9,199.2,267.9,197.2,265.1,197.2z"/>
			<path class="st1" d="M370.9,117.4c0,2.3,2.1,4.3,4.5,4.3c2.4,0,4.5-2,4.5-4.3c0-2.3-2.1-4.3-4.5-4.3
				C373,113.1,370.9,114.7,370.9,117.4z"/>
			<path class="st1" d="M375.4,124.7c-4.2,0-7.6-3.3-7.6-7.3c0-4,3.5-7.3,7.6-7.3c4.2,0,7.6,3.3,7.6,7.3
				C383,121.4,379.6,124.7,375.4,124.7z M375.4,112.4c-2.8,0-4.8,2-4.8,4.6c0,2.6,2.1,4.6,4.8,4.6c2.8,0,4.8-2,4.8-4.6
				C380.3,114.4,378.2,112.4,375.4,112.4z"/>
			<path class="st1" d="M375.4,218.4c2.5,0,4.5-1.9,4.5-4.3s-2-4.3-4.5-4.3c-2.5,0-4.5,1.9-4.5,4.3S373,218.4,375.4,218.4z"/>
			<path class="st1" d="M375.4,221.4c-4.2,0-7.6-3.3-7.6-7.3c0-4,3.5-7.3,7.6-7.3c4.2,0,7.6,3.3,7.6,7.3
				C383,218.1,379.6,221.4,375.4,221.4z M375.4,209.5c-2.8,0-4.8,2-4.8,4.6c0,2.6,2.1,4.6,4.8,4.6c2.8,0,4.8-2,4.8-4.6
				C380.3,211.5,378.2,209.5,375.4,209.5z"/>
			<path class="st1" d="M375.4,343.3c2.5,0,4.5-1.9,4.5-4.3c0-2.4-2-4.3-4.5-4.3c-2.5,0-4.5,1.9-4.5,4.3
				C370.9,341.4,373,343.3,375.4,343.3z"/>
			<path class="st1" d="M375.4,346.3c-4.2,0-7.6-3.3-7.6-7.3c0-4,3.5-7.3,7.6-7.3c4.2,0,7.6,3.3,7.6,7.3
				C383,343,379.6,346.3,375.4,346.3z M375.4,334.3c-2.8,0-4.8,2-4.8,4.6c0,2.6,2.1,4.6,4.8,4.6c2.8,0,4.8-2,4.8-4.6
				C380.3,336.3,378.2,334.3,375.4,334.3z"/>
			<path class="st1" d="M485.4,261.5c2.5,0,4.5-1.9,4.5-4.3c0-2.4-2-4.3-4.5-4.3c-2.5,0-4.5,1.9-4.5,4.3
				C480.9,259.6,483,261.5,485.4,261.5z"/>
			<path class="st1" d="M485.4,264.5c-4.2,0-7.6-3.3-7.6-7.3c0-4,3.5-7.3,7.6-7.3s7.6,3.3,7.6,7.3
				C493.4,261.1,489.9,264.5,485.4,264.5z M485.4,252.5c-2.8,0-4.8,2-4.8,4.6c0,2.6,2.1,4.6,4.8,4.6c2.8,0,4.8-2,4.8-4.6
				C490.6,254.5,488.2,252.5,485.4,252.5z"/>
			<path class="st1" d="M485.4,183.3c2.5,0,4.5-1.9,4.5-4.3c0-2.4-2-4.3-4.5-4.3c-2.5,0-4.5,1.9-4.5,4.3
				C480.9,181.4,483,183.3,485.4,183.3z"/>
			<path class="st1" d="M485.4,186.3c-4.2,0-7.6-3.3-7.6-7.3c0-4,3.5-7.3,7.6-7.3s7.6,3.3,7.6,7.3
				C493.4,183,489.9,186.3,485.4,186.3z M485.4,174.4c-2.8,0-4.8,2-4.8,4.6c0,2.6,2.1,4.6,4.8,4.6c2.8,0,4.8-2,4.8-4.6
				C490.6,176.3,488.2,174.4,485.4,174.4z"/>
			<path class="st1" d="M485.4,146.5c2.5,0,4.5-1.9,4.5-4.3c0-2.4-2-4.3-4.5-4.3c-2.5,0-4.5,1.9-4.5,4.3
				C480.9,144.6,483,146.5,485.4,146.5z"/>
			<path class="st1" d="M485.4,149.5c-4.2,0-7.6-3.3-7.6-7.3c0-4,3.5-7.3,7.6-7.3s7.6,3.3,7.6,7.3
				C493.4,146.2,489.9,149.5,485.4,149.5z M485.4,137.6c-2.8,0-4.8,2-4.8,4.6c0,2.6,2.1,4.6,4.8,4.6c2.8,0,4.8-2,4.8-4.6
				C490.6,139.6,488.2,137.6,485.4,137.6z"/>
			
				<linearGradient id="SVGID_5_" gradientUnits="userSpaceOnUse" x1="160.4443" y1="42.0107" x2="160.4443" y2="407.6809" gradientTransform="matrix(1 0 0 -1 0 488.3059)">
				<stop  offset="0" style="stop-color:#FF6700"/>
				<stop  offset="1" style="stop-color:#FF6700;stop-opacity:0"/>
			</linearGradient>
			<path class="st4" d="M-286,382.7l110,21.2l110.4-42.1L44.7,202.2l110,38.1l110.4-38.1l110.4-84.5l110,24.8l121.4-61.9v365.7H-286
				V382.7z"/>
		</g>
	</g>
</mask>
<g class="st5">
	<rect class="st6" width="466.1" height="446.4"/>
</g>
</svg>
