<svg width="297" height="325" viewBox="0 0 297 325" fill="none" xmlns="http://www.w3.org/2000/svg">
<path d="M20.8861 239.534H10.6611V324.997H20.8861V239.534Z" fill="#7C89E4"/>
<path d="M51.5609 171.222H41.3359V325.001H51.5609V171.222Z" fill="#7C89E4"/>
<path d="M82.2347 102.906H72.0098V325.002H82.2347V102.906Z" fill="#7C89E4"/>
<path d="M112.909 273.828H102.685V324.998H112.909V273.828Z" fill="#7C89E4"/>
<path d="M143.584 34.5884H133.359V325.001H143.584V34.5884Z" fill="#7C89E4"/>
<path d="M174.26 137.2H164.035V325.004H174.26V137.2Z" fill="#7C89E4"/>
<path d="M204.933 282.402H194.708V325H204.933V282.402Z" fill="#7C89E4"/>
<path d="M235.61 299.277H225.385V324.997H235.61V299.277Z" fill="#7C89E4"/>
<path d="M266.284 248.106H256.059V324.996H266.284V248.106Z" fill="#7C89E4"/>
<path d="M296.96 102.906H286.735V325.002H296.96V102.906Z" fill="#7C89E4"/>
<path opacity="0.3" d="M0.434907 68.8809H-9.79004V325.002H0.434907V68.8809Z" fill="#7C89E4"/>
<path opacity="0.3" d="M31.1107 205.51H20.8857V324.998H31.1107V205.51Z" fill="#7C89E4"/>
<path opacity="0.3" d="M61.7865 290.979H51.5615V325.003H61.7865V290.979Z" fill="#7C89E4"/>
<path opacity="0.3" d="M92.4603 256.684H82.2354V325H92.4603V256.684Z" fill="#7C89E4"/>
<path opacity="0.3" d="M123.134 205.51H112.909V324.998H123.134V205.51Z" fill="#7C89E4"/>
<path opacity="0.3" d="M153.807 222.66H143.582V325.001H153.807V222.66Z" fill="#7C89E4"/>
<path opacity="0.3" d="M184.484 51.731H174.259V324.998H184.484V51.731Z" fill="#7C89E4"/>
<path opacity="0.3" d="M215.159 154.341H204.934V324.999H215.159V154.341Z" fill="#7C89E4"/>
<path opacity="0.3" d="M245.834 86.0229H235.609V324.997H245.834V86.0229Z" fill="#7C89E4"/>
<path opacity="0.3" d="M276.511 171.222H266.286V325.001H276.511V171.222Z" fill="#7C89E4"/>
<path opacity="0.3" d="M307.183 102.906H296.958V325.002H307.183V102.906Z" fill="#7C89E4"/>
<path opacity="0.5" d="M286.735 273.828H276.51V324.998H286.735V273.828Z" fill="#7C89E4"/>
<path opacity="0.5" d="M256.059 205.51H245.834V324.998H256.059V205.51Z" fill="#7C89E4"/>
<path opacity="0.5" d="M225.386 0.563477H215.161V325.001H225.386V0.563477Z" fill="#7C89E4"/>
<path opacity="0.5" d="M194.708 239.534H184.483V324.997H194.708V239.534Z" fill="#7C89E4"/>
<path opacity="0.5" d="M164.033 273.828H153.809V324.998H164.033V273.828Z" fill="#7C89E4"/>
<path opacity="0.5" d="M133.361 86.0229H123.136V324.997H133.361V86.0229Z" fill="#7C89E4"/>
<path opacity="0.5" d="M102.685 299.277H92.46V324.997H102.685V299.277Z" fill="#7C89E4"/>
<path opacity="0.5" d="M72.0101 196.943H61.7852V325.003H72.0101V196.943Z" fill="#7C89E4"/>
<path opacity="0.5" d="M41.3353 17.7041H31.1104V324.995H41.3353V17.7041Z" fill="#7C89E4"/>
<path opacity="0.5" d="M10.6615 34.5884H0.436523V325.001H10.6615V34.5884Z" fill="#7C89E4"/>
</svg>
