<svg width="20" height="20" viewBox="0 0 20 20" fill="none" xmlns="http://www.w3.org/2000/svg">
<g clip-path="url(#clip0)">
<path d="M19.4692 9.99994C19.4692 15.2799 15.2092 19.5599 9.95922 19.5599C4.70922 19.5599 0.449219 15.2799 0.449219 9.99994C0.449219 4.71994 4.70922 0.439941 9.95922 0.439941C15.2092 0.439941 19.4692 4.71994 19.4692 9.99994Z" stroke="#7C89E4" stroke-width="0.889"/>
<path d="M9.99984 7.15984C10.6405 7.15984 11.1598 6.64049 11.1598 5.99984C11.1598 5.35919 10.6405 4.83984 9.99984 4.83984C9.35919 4.83984 8.83984 5.35919 8.83984 5.99984C8.83984 6.64049 9.35919 7.15984 9.99984 7.15984Z" fill="#7C89E4"/>
<path d="M10.8606 9.24023H9.14062V15.7502H10.8606V9.24023Z" fill="#7C89E4"/>
</g>
<defs>
<clipPath id="clip0">
<rect width="19.92" height="20" fill="white"/>
</clipPath>
</defs>
</svg>
