<?xml version="1.0" encoding="utf-8"?>
<!-- Generator: Adobe Illustrator 23.0.3, SVG Export Plug-In . SVG Version: 6.00 Build 0)  -->
<svg version="1.1" id="Layer_1" xmlns="http://www.w3.org/2000/svg" xmlns:xlink="http://www.w3.org/1999/xlink" x="0px" y="0px"
	 viewBox="0 0 31.8 38" style="enable-background:new 0 0 31.8 38;" xml:space="preserve">
<style type="text/css">
	.st0{fill:#7C89E4;}
	.st1{fill:#FFFFFF;}
</style>
<rect x="0" y="0" class="st0" width="9.2" height="37.9"/>
<path class="st1" d="M29.5,8.7c-1.5-2.8-3.6-4.9-6.3-6.4c-2.7-1.5-5.7-2.3-9-2.3h-1.1v7.1h1.1c2.7,0,4.7,0.9,6.1,2.8
	c1.4,1.9,2.1,4.6,2.1,8.3v1.6c0,3.7-0.7,6.4-2.1,8.3c-1.4,1.9-3.4,2.8-6,2.8h-1.2v7h1.4c3.3,0,6.2-0.8,8.9-2.4
	c2.7-1.6,4.7-3.7,6.2-6.5c1.5-2.7,2.2-5.9,2.2-9.3V18C31.7,14.6,31,11.5,29.5,8.7z"/>
</svg>
