<?xml version="1.0" encoding="utf-8"?>
<!-- Generator: Adobe Illustrator 23.0.3, SVG Export Plug-In . SVG Version: 6.00 Build 0)  -->
<svg version="1.1" id="Layer_1" xmlns="http://www.w3.org/2000/svg" xmlns:xlink="http://www.w3.org/1999/xlink" x="0px" y="0px"
	 viewBox="0 0 365.7 81" style="enable-background:new 0 0 365.7 81;" xml:space="preserve">
<style type="text/css">
	.st0{fill:none;}
	.st1{enable-background:new    ;}
	.st2{fill:#FFFFFF;}
	.st3{fill:#7C89E4;}
</style>
<rect x="26.8" y="58.8" class="st0" width="295.6" height="22.4"/>
<g class="st1">
	<path class="st2" d="M35.4,66.1c-0.1,1.1-0.5,1.9-1.2,2.5c-0.7,0.6-1.6,0.9-2.7,0.9c-0.8,0-1.5-0.2-2.1-0.6
		c-0.6-0.4-1.1-0.9-1.4-1.6s-0.5-1.5-0.5-2.4v-0.9c0-0.9,0.2-1.8,0.5-2.5s0.8-1.3,1.4-1.7s1.3-0.6,2.2-0.6c1.1,0,2,0.3,2.7,0.9
		c0.7,0.6,1.1,1.4,1.2,2.5h-1.7c-0.1-0.7-0.3-1.2-0.6-1.5c-0.3-0.3-0.8-0.5-1.5-0.5c-0.8,0-1.3,0.3-1.7,0.8s-0.6,1.4-0.6,2.4v0.9
		c0,1.1,0.2,1.9,0.6,2.5s0.9,0.8,1.7,0.8c0.7,0,1.2-0.2,1.5-0.5s0.6-0.8,0.6-1.5H35.4z"/>
	<path class="st2" d="M40.7,63.4c-0.2,0-0.4-0.1-0.7-0.1c-0.8,0-1.3,0.3-1.5,0.9v5.1h-1.7v-7.4h1.6l0,0.8c0.4-0.6,1-1,1.7-1
		c0.2,0,0.4,0,0.6,0.1L40.7,63.4z"/>
	<path class="st2" d="M41.7,60c0-0.3,0.1-0.5,0.2-0.6s0.4-0.3,0.7-0.3s0.5,0.1,0.7,0.3s0.2,0.4,0.2,0.6c0,0.3-0.1,0.5-0.2,0.6
		c-0.2,0.2-0.4,0.2-0.7,0.2s-0.5-0.1-0.7-0.2C41.8,60.5,41.7,60.2,41.7,60z M43.5,69.3h-1.7v-7.4h1.7V69.3z"/>
	<path class="st2" d="M46.9,61.9l0,0.8c0.5-0.6,1.2-0.9,2.1-0.9c1,0,1.7,0.4,2,1.1c0.5-0.8,1.3-1.1,2.3-1.1c0.8,0,1.4,0.2,1.8,0.7
		s0.6,1.1,0.6,2v4.9h-1.7v-4.8c0-0.5-0.1-0.8-0.3-1s-0.5-0.3-1-0.3c-0.4,0-0.7,0.1-0.9,0.3c-0.2,0.2-0.4,0.5-0.5,0.8l0,5.1h-1.7
		v-4.9c0-0.9-0.5-1.3-1.3-1.3c-0.7,0-1.1,0.3-1.4,0.8v5.4h-1.7v-7.4H46.9z"/>
	<path class="st2" d="M60.7,69.5c-1.1,0-1.9-0.3-2.6-1c-0.7-0.7-1-1.5-1-2.6v-0.2c0-0.7,0.1-1.4,0.4-2c0.3-0.6,0.7-1,1.2-1.4
		s1.1-0.5,1.7-0.5c1,0,1.8,0.3,2.3,1s0.8,1.6,0.8,2.7v0.7h-4.8c0.1,0.6,0.3,1.1,0.6,1.4s0.8,0.5,1.4,0.5c0.8,0,1.4-0.3,1.9-0.9
		l0.9,0.9c-0.3,0.4-0.7,0.8-1.2,1C61.9,69.3,61.4,69.5,60.7,69.5z M60.6,63.1c-0.5,0-0.8,0.2-1.1,0.5s-0.5,0.8-0.5,1.3h3.2v-0.1
		c0-0.6-0.2-1-0.4-1.3C61.4,63.3,61,63.1,60.6,63.1z"/>
	<path class="st2" d="M72.9,69.3c-0.1-0.1-0.1-0.4-0.2-0.7c-0.5,0.6-1.2,0.8-1.9,0.8c-0.7,0-1.3-0.2-1.8-0.6s-0.7-0.9-0.7-1.6
		c0-0.8,0.3-1.4,0.9-1.8c0.6-0.4,1.4-0.6,2.5-0.6h1v-0.5c0-0.4-0.1-0.7-0.3-0.9c-0.2-0.2-0.5-0.3-1-0.3c-0.4,0-0.7,0.1-0.9,0.3
		c-0.2,0.2-0.4,0.4-0.4,0.7h-1.7c0-0.4,0.1-0.8,0.4-1.1c0.3-0.4,0.6-0.6,1.1-0.8s1-0.3,1.5-0.3c0.9,0,1.6,0.2,2.1,0.7
		c0.5,0.4,0.8,1,0.8,1.8v3.3c0,0.7,0.1,1.2,0.3,1.6v0.1H72.9z M71.1,68.1c0.3,0,0.6-0.1,0.9-0.2s0.5-0.4,0.7-0.6v-1.4h-0.9
		c-0.6,0-1.1,0.1-1.4,0.3s-0.5,0.5-0.5,0.9c0,0.3,0.1,0.6,0.3,0.8C70.4,68,70.7,68.1,71.1,68.1z"/>
	<path class="st2" d="M77.6,61.9l0,0.9c0.5-0.7,1.3-1,2.2-1c1.5,0,2.3,0.9,2.4,2.6v4.9h-1.7v-4.8c0-0.5-0.1-0.8-0.3-1
		c-0.2-0.2-0.5-0.3-1-0.3c-0.7,0-1.2,0.3-1.5,0.9v5.3H76v-7.4H77.6z"/>
	<path class="st2" d="M83.5,65.6c0-1.1,0.3-2.1,0.8-2.7c0.5-0.7,1.2-1,2.1-1c0.8,0,1.4,0.3,1.9,0.8v-3.8H90v10.5h-1.5l-0.1-0.8
		c-0.5,0.6-1.2,0.9-2,0.9c-0.9,0-1.6-0.3-2.1-1S83.5,66.8,83.5,65.6z M85.2,65.7c0,0.8,0.1,1.3,0.4,1.8c0.3,0.4,0.7,0.6,1.2,0.6
		c0.7,0,1.2-0.3,1.5-0.9V64c-0.3-0.6-0.8-0.9-1.5-0.9c-0.5,0-1,0.2-1.2,0.6C85.3,64.2,85.2,64.9,85.2,65.7z"/>
	<path class="st2" d="M101.7,65.7c0,1.1-0.3,2.1-0.8,2.7c-0.5,0.7-1.2,1-2.1,1c-0.8,0-1.5-0.3-1.9-0.8v3.5h-1.7V61.9h1.5l0.1,0.8
		c0.5-0.6,1.2-0.9,2-0.9c0.9,0,1.6,0.3,2.1,1c0.5,0.7,0.8,1.6,0.8,2.8V65.7z M100.1,65.5c0-0.7-0.1-1.3-0.4-1.8s-0.7-0.6-1.3-0.6
		c-0.7,0-1.2,0.3-1.5,0.8v3.3c0.3,0.6,0.8,0.9,1.5,0.9c0.5,0,0.9-0.2,1.2-0.6C99.9,67.1,100.1,66.4,100.1,65.5z"/>
	<path class="st2" d="M107.6,68.6c-0.5,0.6-1.2,0.9-2.1,0.9c-0.8,0-1.4-0.2-1.8-0.7s-0.6-1.1-0.6-2v-4.8h1.7v4.8
		c0,0.9,0.4,1.4,1.2,1.4c0.8,0,1.4-0.3,1.6-0.9v-5.3h1.7v7.4h-1.6L107.6,68.6z"/>
	<path class="st2" d="M112.4,61.9l0,0.9c0.5-0.7,1.3-1,2.2-1c1.5,0,2.3,0.9,2.4,2.6v4.9h-1.7v-4.8c0-0.5-0.1-0.8-0.3-1
		c-0.2-0.2-0.5-0.3-1-0.3c-0.7,0-1.2,0.3-1.5,0.9v5.3h-1.7v-7.4H112.4z"/>
	<path class="st2" d="M118.7,60c0-0.3,0.1-0.5,0.2-0.6s0.4-0.3,0.7-0.3s0.5,0.1,0.7,0.3s0.2,0.4,0.2,0.6c0,0.3-0.1,0.5-0.2,0.6
		c-0.2,0.2-0.4,0.2-0.7,0.2s-0.5-0.1-0.7-0.2C118.8,60.5,118.7,60.2,118.7,60z M120.5,69.3h-1.7v-7.4h1.7V69.3z"/>
	<path class="st2" d="M126.4,67.3c0-0.3-0.1-0.5-0.4-0.7s-0.6-0.3-1.2-0.4s-1-0.3-1.4-0.5c-0.8-0.4-1.2-1-1.2-1.7
		c0-0.6,0.3-1.2,0.8-1.6s1.2-0.6,2.1-0.6c0.9,0,1.6,0.2,2.1,0.7s0.8,1,0.8,1.7h-1.7c0-0.3-0.1-0.6-0.4-0.8c-0.2-0.2-0.6-0.3-0.9-0.3
		c-0.4,0-0.7,0.1-0.9,0.3s-0.3,0.4-0.3,0.7c0,0.3,0.1,0.5,0.3,0.6s0.6,0.3,1.3,0.4c0.7,0.1,1.2,0.3,1.5,0.5c0.4,0.2,0.6,0.4,0.8,0.7
		s0.3,0.6,0.3,1c0,0.7-0.3,1.2-0.8,1.6c-0.6,0.4-1.3,0.6-2.2,0.6c-0.6,0-1.1-0.1-1.6-0.3s-0.8-0.5-1.1-0.9s-0.4-0.8-0.4-1.2h1.6
		c0,0.4,0.2,0.7,0.4,0.9c0.3,0.2,0.6,0.3,1.1,0.3c0.4,0,0.8-0.1,1-0.2C126.3,67.8,126.4,67.6,126.4,67.3z"/>
	<path class="st2" d="M131.1,62.7c0.5-0.6,1.2-0.9,2.1-0.9c1.6,0,2.4,0.9,2.4,2.7v4.8h-1.7v-4.8c0-0.5-0.1-0.9-0.3-1.1
		c-0.2-0.2-0.5-0.3-1-0.3c-0.7,0-1.2,0.3-1.5,0.9v5.3h-1.7V58.8h1.7V62.7z"/>
	<path class="st2" d="M138.8,61.9l0,0.8c0.5-0.6,1.2-0.9,2.1-0.9c1,0,1.7,0.4,2,1.1c0.5-0.8,1.3-1.1,2.3-1.1c0.8,0,1.4,0.2,1.8,0.7
		s0.6,1.1,0.6,2v4.9h-1.7v-4.8c0-0.5-0.1-0.8-0.3-1s-0.5-0.3-1-0.3c-0.4,0-0.7,0.1-0.9,0.3c-0.2,0.2-0.4,0.5-0.5,0.8l0,5.1h-1.7
		v-4.9c0-0.9-0.5-1.3-1.3-1.3c-0.7,0-1.1,0.3-1.4,0.8v5.4h-1.7v-7.4H138.8z"/>
	<path class="st2" d="M152.7,69.5c-1.1,0-1.9-0.3-2.6-1c-0.7-0.7-1-1.5-1-2.6v-0.2c0-0.7,0.1-1.4,0.4-2c0.3-0.6,0.7-1,1.2-1.4
		s1.1-0.5,1.7-0.5c1,0,1.8,0.3,2.3,1s0.8,1.6,0.8,2.7v0.7h-4.8c0.1,0.6,0.3,1.1,0.6,1.4s0.8,0.5,1.4,0.5c0.8,0,1.4-0.3,1.9-0.9
		l0.9,0.9c-0.3,0.4-0.7,0.8-1.2,1C153.9,69.3,153.3,69.5,152.7,69.5z M152.5,63.1c-0.5,0-0.8,0.2-1.1,0.5s-0.5,0.8-0.5,1.3h3.2v-0.1
		c0-0.6-0.2-1-0.4-1.3C153.3,63.3,153,63.1,152.5,63.1z"/>
	<path class="st2" d="M158.5,61.9l0,0.9c0.5-0.7,1.3-1,2.2-1c1.5,0,2.3,0.9,2.4,2.6v4.9h-1.7v-4.8c0-0.5-0.1-0.8-0.3-1
		c-0.2-0.2-0.5-0.3-1-0.3c-0.7,0-1.2,0.3-1.5,0.9v5.3h-1.7v-7.4H158.5z"/>
	<path class="st2" d="M166.8,60.1v1.8h1.3v1.2h-1.3v4.1c0,0.3,0.1,0.5,0.2,0.6c0.1,0.1,0.3,0.2,0.6,0.2c0.2,0,0.4,0,0.6-0.1v1.3
		c-0.4,0.1-0.7,0.2-1.1,0.2c-1.3,0-1.9-0.7-1.9-2.1v-4.2h-1.2v-1.2h1.2v-1.8H166.8z"/>
	<path class="st2" d="M177,67.3c0-0.3-0.1-0.5-0.4-0.7s-0.6-0.3-1.2-0.4s-1-0.3-1.4-0.5c-0.8-0.4-1.2-1-1.2-1.7
		c0-0.6,0.3-1.2,0.8-1.6s1.2-0.6,2.1-0.6c0.9,0,1.6,0.2,2.1,0.7s0.8,1,0.8,1.7h-1.7c0-0.3-0.1-0.6-0.4-0.8c-0.2-0.2-0.6-0.3-0.9-0.3
		c-0.4,0-0.7,0.1-0.9,0.3s-0.3,0.4-0.3,0.7c0,0.3,0.1,0.5,0.3,0.6s0.6,0.3,1.3,0.4c0.7,0.1,1.2,0.3,1.5,0.5c0.4,0.2,0.6,0.4,0.8,0.7
		s0.3,0.6,0.3,1c0,0.7-0.3,1.2-0.8,1.6c-0.6,0.4-1.3,0.6-2.2,0.6c-0.6,0-1.1-0.1-1.6-0.3s-0.8-0.5-1.1-0.9s-0.4-0.8-0.4-1.2h1.6
		c0,0.4,0.2,0.7,0.4,0.9c0.3,0.2,0.6,0.3,1.1,0.3c0.4,0,0.8-0.1,1-0.2C176.9,67.8,177,67.6,177,67.3z"/>
	<path class="st2" d="M182.2,60.1v1.8h1.3v1.2h-1.3v4.1c0,0.3,0.1,0.5,0.2,0.6c0.1,0.1,0.3,0.2,0.6,0.2c0.2,0,0.4,0,0.6-0.1v1.3
		c-0.4,0.1-0.7,0.2-1.1,0.2c-1.3,0-1.9-0.7-1.9-2.1v-4.2h-1.2v-1.2h1.2v-1.8H182.2z"/>
	<path class="st2" d="M189.2,69.3c-0.1-0.1-0.1-0.4-0.2-0.7c-0.5,0.6-1.2,0.8-1.9,0.8c-0.7,0-1.3-0.2-1.8-0.6
		c-0.5-0.4-0.7-0.9-0.7-1.6c0-0.8,0.3-1.4,0.9-1.8c0.6-0.4,1.4-0.6,2.5-0.6h1v-0.5c0-0.4-0.1-0.7-0.3-0.9c-0.2-0.2-0.5-0.3-1-0.3
		c-0.4,0-0.7,0.1-0.9,0.3c-0.2,0.2-0.4,0.4-0.4,0.7h-1.7c0-0.4,0.1-0.8,0.4-1.1c0.3-0.4,0.6-0.6,1.1-0.8c0.5-0.2,1-0.3,1.5-0.3
		c0.9,0,1.6,0.2,2.1,0.7c0.5,0.4,0.8,1,0.8,1.8v3.3c0,0.7,0.1,1.2,0.3,1.6v0.1H189.2z M187.4,68.1c0.3,0,0.6-0.1,0.9-0.2
		c0.3-0.2,0.5-0.4,0.7-0.6v-1.4H188c-0.6,0-1.1,0.1-1.4,0.3c-0.3,0.2-0.5,0.5-0.5,0.9c0,0.3,0.1,0.6,0.3,0.8
		C186.7,68,187,68.1,187.4,68.1z"/>
	<path class="st2" d="M194.4,60.1v1.8h1.3v1.2h-1.3v4.1c0,0.3,0.1,0.5,0.2,0.6c0.1,0.1,0.3,0.2,0.6,0.2c0.2,0,0.4,0,0.6-0.1v1.3
		c-0.4,0.1-0.7,0.2-1.1,0.2c-1.3,0-1.9-0.7-1.9-2.1v-4.2h-1.2v-1.2h1.2v-1.8H194.4z"/>
	<path class="st2" d="M197,60c0-0.3,0.1-0.5,0.2-0.6c0.2-0.2,0.4-0.3,0.7-0.3s0.5,0.1,0.7,0.3s0.2,0.4,0.2,0.6
		c0,0.3-0.1,0.5-0.2,0.6c-0.2,0.2-0.4,0.2-0.7,0.2s-0.5-0.1-0.7-0.2C197.1,60.5,197,60.2,197,60z M198.8,69.3h-1.7v-7.4h1.7V69.3z"
		/>
	<path class="st2" d="M204.7,67.3c0-0.3-0.1-0.5-0.4-0.7c-0.2-0.2-0.6-0.3-1.2-0.4c-0.6-0.1-1-0.3-1.4-0.5c-0.8-0.4-1.2-1-1.2-1.7
		c0-0.6,0.3-1.2,0.8-1.6c0.5-0.4,1.2-0.6,2.1-0.6c0.9,0,1.6,0.2,2.1,0.7c0.5,0.4,0.8,1,0.8,1.7h-1.7c0-0.3-0.1-0.6-0.4-0.8
		c-0.2-0.2-0.6-0.3-0.9-0.3c-0.4,0-0.7,0.1-0.9,0.3c-0.2,0.2-0.3,0.4-0.3,0.7c0,0.3,0.1,0.5,0.3,0.6c0.2,0.1,0.6,0.3,1.3,0.4
		c0.7,0.1,1.2,0.3,1.5,0.5c0.4,0.2,0.6,0.4,0.8,0.7c0.2,0.3,0.3,0.6,0.3,1c0,0.7-0.3,1.2-0.8,1.6c-0.6,0.4-1.3,0.6-2.2,0.6
		c-0.6,0-1.1-0.1-1.6-0.3c-0.5-0.2-0.8-0.5-1.1-0.9c-0.3-0.4-0.4-0.8-0.4-1.2h1.6c0,0.4,0.2,0.7,0.4,0.9c0.3,0.2,0.6,0.3,1.1,0.3
		c0.4,0,0.8-0.1,1-0.2C204.6,67.8,204.7,67.6,204.7,67.3z"/>
	<path class="st2" d="M209.9,60.1v1.8h1.3v1.2h-1.3v4.1c0,0.3,0.1,0.5,0.2,0.6c0.1,0.1,0.3,0.2,0.6,0.2c0.2,0,0.4,0,0.6-0.1v1.3
		c-0.4,0.1-0.7,0.2-1.1,0.2c-1.3,0-1.9-0.7-1.9-2.1v-4.2H207v-1.2h1.2v-1.8H209.9z"/>
	<path class="st2" d="M212.5,60c0-0.3,0.1-0.5,0.2-0.6c0.2-0.2,0.4-0.3,0.7-0.3s0.5,0.1,0.7,0.3s0.2,0.4,0.2,0.6
		c0,0.3-0.1,0.5-0.2,0.6c-0.2,0.2-0.4,0.2-0.7,0.2s-0.5-0.1-0.7-0.2C212.5,60.5,212.5,60.2,212.5,60z M214.2,69.3h-1.7v-7.4h1.7
		V69.3z"/>
	<path class="st2" d="M219.1,68.1c0.4,0,0.8-0.1,1-0.4s0.4-0.5,0.4-0.9h1.6c0,0.5-0.2,0.9-0.4,1.3c-0.3,0.4-0.6,0.7-1.1,0.9
		c-0.5,0.2-1,0.3-1.5,0.3c-1,0-1.9-0.3-2.5-1c-0.6-0.7-0.9-1.6-0.9-2.8v-0.2c0-1.1,0.3-2,0.9-2.7c0.6-0.7,1.4-1,2.5-1
		c0.9,0,1.6,0.3,2.2,0.8c0.6,0.5,0.8,1.2,0.9,2h-1.6c0-0.4-0.2-0.8-0.4-1c-0.3-0.3-0.6-0.4-1-0.4c-0.5,0-1,0.2-1.2,0.6
		c-0.3,0.4-0.4,1-0.4,1.8v0.3c0,0.8,0.1,1.4,0.4,1.8C218.1,67.9,218.5,68.1,219.1,68.1z"/>
	<path class="st2" d="M227.5,67.3c0-0.3-0.1-0.5-0.4-0.7c-0.2-0.2-0.6-0.3-1.2-0.4c-0.6-0.1-1-0.3-1.4-0.5c-0.8-0.4-1.2-1-1.2-1.7
		c0-0.6,0.3-1.2,0.8-1.6c0.5-0.4,1.2-0.6,2.1-0.6c0.9,0,1.6,0.2,2.1,0.7c0.5,0.4,0.8,1,0.8,1.7h-1.7c0-0.3-0.1-0.6-0.4-0.8
		c-0.2-0.2-0.6-0.3-0.9-0.3c-0.4,0-0.7,0.1-0.9,0.3c-0.2,0.2-0.3,0.4-0.3,0.7c0,0.3,0.1,0.5,0.3,0.6c0.2,0.1,0.6,0.3,1.3,0.4
		c0.7,0.1,1.2,0.3,1.5,0.5c0.4,0.2,0.6,0.4,0.8,0.7c0.2,0.3,0.3,0.6,0.3,1c0,0.7-0.3,1.2-0.8,1.6c-0.6,0.4-1.3,0.6-2.2,0.6
		c-0.6,0-1.1-0.1-1.6-0.3c-0.5-0.2-0.8-0.5-1.1-0.9c-0.3-0.4-0.4-0.8-0.4-1.2h1.6c0,0.4,0.2,0.7,0.4,0.9c0.3,0.2,0.6,0.3,1.1,0.3
		c0.4,0,0.8-0.1,1-0.2C227.4,67.8,227.5,67.6,227.5,67.3z"/>
	<path class="st2" d="M234.1,60c0-0.3,0.1-0.5,0.2-0.6c0.2-0.2,0.4-0.3,0.7-0.3s0.5,0.1,0.7,0.3s0.2,0.4,0.2,0.6
		c0,0.3-0.1,0.5-0.2,0.6c-0.2,0.2-0.4,0.2-0.7,0.2s-0.5-0.1-0.7-0.2C234.1,60.5,234.1,60.2,234.1,60z M235.8,69.3h-1.7v-7.4h1.7
		V69.3z"/>
	<path class="st2" d="M239.2,61.9l0,0.9c0.5-0.7,1.3-1,2.2-1c1.5,0,2.3,0.9,2.4,2.6v4.9h-1.7v-4.8c0-0.5-0.1-0.8-0.3-1
		c-0.2-0.2-0.5-0.3-1-0.3c-0.7,0-1.2,0.3-1.5,0.9v5.3h-1.7v-7.4H239.2z"/>
	<path class="st2" d="M252.7,65.5h-1.9v3.8h-1.7v-10h3.5c1.1,0,2,0.3,2.7,0.8c0.6,0.5,0.9,1.3,0.9,2.2c0,0.7-0.2,1.2-0.5,1.7
		s-0.8,0.8-1.3,1l2.2,4.1v0.1h-1.9L252.7,65.5z M250.8,64.1h1.8c0.6,0,1-0.1,1.4-0.4c0.3-0.3,0.5-0.7,0.5-1.2c0-0.5-0.2-0.9-0.5-1.2
		c-0.3-0.3-0.8-0.4-1.4-0.5h-1.8V64.1z"/>
	<path class="st2" d="M262.1,68.6c-0.5,0.6-1.2,0.9-2.1,0.9c-0.8,0-1.4-0.2-1.8-0.7c-0.4-0.5-0.6-1.1-0.6-2v-4.8h1.7v4.8
		c0,0.9,0.4,1.4,1.2,1.4c0.8,0,1.4-0.3,1.6-0.9v-5.3h1.7v7.4h-1.6L262.1,68.6z"/>
	<path class="st2" d="M269.6,67.3c0-0.3-0.1-0.5-0.4-0.7c-0.2-0.2-0.6-0.3-1.2-0.4c-0.6-0.1-1-0.3-1.4-0.5c-0.8-0.4-1.2-1-1.2-1.7
		c0-0.6,0.3-1.2,0.8-1.6c0.5-0.4,1.2-0.6,2.1-0.6c0.9,0,1.6,0.2,2.1,0.7c0.5,0.4,0.8,1,0.8,1.7h-1.7c0-0.3-0.1-0.6-0.4-0.8
		c-0.2-0.2-0.6-0.3-0.9-0.3c-0.4,0-0.7,0.1-0.9,0.3c-0.2,0.2-0.3,0.4-0.3,0.7c0,0.3,0.1,0.5,0.3,0.6c0.2,0.1,0.6,0.3,1.3,0.4
		c0.7,0.1,1.2,0.3,1.5,0.5c0.4,0.2,0.6,0.4,0.8,0.7c0.2,0.3,0.3,0.6,0.3,1c0,0.7-0.3,1.2-0.8,1.6c-0.6,0.4-1.3,0.6-2.2,0.6
		c-0.6,0-1.1-0.1-1.6-0.3c-0.5-0.2-0.8-0.5-1.1-0.9c-0.3-0.4-0.4-0.8-0.4-1.2h1.6c0,0.4,0.2,0.7,0.4,0.9c0.3,0.2,0.6,0.3,1.1,0.3
		c0.4,0,0.8-0.1,1-0.2C269.5,67.8,269.6,67.6,269.6,67.3z"/>
	<path class="st2" d="M276.8,67.3c0-0.3-0.1-0.5-0.4-0.7c-0.2-0.2-0.6-0.3-1.2-0.4c-0.6-0.1-1-0.3-1.4-0.5c-0.8-0.4-1.2-1-1.2-1.7
		c0-0.6,0.3-1.2,0.8-1.6c0.5-0.4,1.2-0.6,2.1-0.6c0.9,0,1.6,0.2,2.1,0.7c0.5,0.4,0.8,1,0.8,1.7h-1.7c0-0.3-0.1-0.6-0.4-0.8
		c-0.2-0.2-0.6-0.3-0.9-0.3c-0.4,0-0.7,0.1-0.9,0.3c-0.2,0.2-0.3,0.4-0.3,0.7c0,0.3,0.1,0.5,0.3,0.6c0.2,0.1,0.6,0.3,1.3,0.4
		c0.7,0.1,1.2,0.3,1.5,0.5c0.4,0.2,0.6,0.4,0.8,0.7c0.2,0.3,0.3,0.6,0.3,1c0,0.7-0.3,1.2-0.8,1.6c-0.6,0.4-1.3,0.6-2.2,0.6
		c-0.6,0-1.1-0.1-1.6-0.3c-0.5-0.2-0.8-0.5-1.1-0.9c-0.3-0.4-0.4-0.8-0.4-1.2h1.6c0,0.4,0.2,0.7,0.4,0.9c0.3,0.2,0.6,0.3,1.1,0.3
		c0.4,0,0.8-0.1,1-0.2C276.7,67.8,276.8,67.6,276.8,67.3z"/>
	<path class="st2" d="M279.9,60c0-0.3,0.1-0.5,0.2-0.6c0.2-0.2,0.4-0.3,0.7-0.3s0.5,0.1,0.7,0.3s0.2,0.4,0.2,0.6
		c0,0.3-0.1,0.5-0.2,0.6c-0.2,0.2-0.4,0.2-0.7,0.2s-0.5-0.1-0.7-0.2C280,60.5,279.9,60.2,279.9,60z M281.6,69.3H280v-7.4h1.7V69.3z"
		/>
	<path class="st2" d="M287.9,69.3c-0.1-0.1-0.1-0.4-0.2-0.7c-0.5,0.6-1.2,0.8-1.9,0.8c-0.7,0-1.3-0.2-1.8-0.6
		c-0.5-0.4-0.7-0.9-0.7-1.6c0-0.8,0.3-1.4,0.9-1.8c0.6-0.4,1.4-0.6,2.5-0.6h1v-0.5c0-0.4-0.1-0.7-0.3-0.9c-0.2-0.2-0.5-0.3-1-0.3
		c-0.4,0-0.7,0.1-0.9,0.3c-0.2,0.2-0.4,0.4-0.4,0.7h-1.7c0-0.4,0.1-0.8,0.4-1.1c0.3-0.4,0.6-0.6,1.1-0.8c0.5-0.2,1-0.3,1.5-0.3
		c0.9,0,1.6,0.2,2.1,0.7c0.5,0.4,0.8,1,0.8,1.8v3.3c0,0.7,0.1,1.2,0.3,1.6v0.1H287.9z M286,68.1c0.3,0,0.6-0.1,0.9-0.2
		c0.3-0.2,0.5-0.4,0.7-0.6v-1.4h-0.9c-0.6,0-1.1,0.1-1.4,0.3c-0.3,0.2-0.5,0.5-0.5,0.9c0,0.3,0.1,0.6,0.3,0.8
		C285.4,68,285.7,68.1,286,68.1z"/>
</g>
<g>
	<path class="st2" d="M82.9,32.1c0,3.7-0.7,6.9-2,9.8c-1.4,2.8-3.3,5-5.8,6.5s-5.4,2.3-8.6,2.3S60.4,50,58,48.5
		c-2.5-1.5-4.4-3.6-5.8-6.3c-1.4-2.7-2.1-5.9-2.2-9.4v-2.1c0-3.7,0.7-6.9,2-9.8c1.4-2.8,3.3-5,5.8-6.5s5.4-2.3,8.6-2.3
		c3.2,0,6,0.8,8.5,2.3s4.4,3.7,5.8,6.5s2.1,6,2.1,9.6L82.9,32.1L82.9,32.1z M73.7,30.5c0-3.7-0.6-6.6-1.9-8.5s-3-2.9-5.4-2.9
		c-4.6,0-7,3.4-7.2,10.2v2.8c0,3.7,0.6,6.5,1.8,8.5s3,3,5.5,3c2.3,0,4.1-1,5.3-2.9s1.9-4.8,1.9-8.4V30.5z"/>
	<path class="st2" d="M106.5,40.1c0-1.3-0.5-2.4-1.4-3.1s-2.6-1.5-5-2.3s-4.3-1.6-5.8-2.3C89.4,30,87,26.7,87,22.5
		c0-2.1,0.6-3.9,1.8-5.5c1.2-1.6,2.9-2.8,5.2-3.7s4.7-1.3,7.5-1.3c2.7,0,5.1,0.5,7.3,1.4c2.1,1,3.8,2.3,5,4.1s1.8,3.8,1.8,6.1h-9.1
		c0-1.5-0.5-2.7-1.4-3.6c-0.9-0.8-2.2-1.3-3.8-1.3c-1.6,0-2.9,0.4-3.8,1.1s-1.4,1.6-1.4,2.7c0,1,0.5,1.8,1.6,2.6s2.9,1.6,5.5,2.4
		s4.7,1.7,6.4,2.7c4.1,2.3,6.1,5.6,6.1,9.7c0,3.3-1.2,5.9-3.7,7.8s-5.9,2.8-10.2,2.8c-3.1,0-5.8-0.5-8.3-1.6s-4.3-2.6-5.6-4.5
		c-1.3-1.9-1.9-4.1-1.9-6.6h9c0,2,0.5,3.5,1.6,4.5c1,1,2.7,1.4,5.1,1.4c1.5,0,2.7-0.3,3.6-1C106.1,42.2,106.5,41.3,106.5,40.1z"/>
	<path class="st2" d="M149.5,19.5h-11.3v30.7h-9.1V19.5H118v-7h31.5V19.5z"/>
	<path class="st2" d="M183.9,32.1c0,3.7-0.7,6.9-2,9.8c-1.4,2.8-3.3,5-5.8,6.5s-5.4,2.3-8.6,2.3s-6.1-0.7-8.5-2.2
		c-2.5-1.5-4.4-3.6-5.8-6.3c-1.4-2.7-2.1-5.9-2.2-9.4v-2.1c0-3.7,0.7-6.9,2-9.8c1.4-2.8,3.3-5,5.8-6.5s5.4-2.3,8.6-2.3
		c3.2,0,6,0.8,8.5,2.3s4.4,3.7,5.8,6.5c1.4,2.8,2.1,6,2.1,9.6L183.9,32.1L183.9,32.1z M174.6,30.5c0-3.7-0.6-6.6-1.9-8.5
		c-1.3-1.9-3-2.9-5.4-2.9c-4.6,0-7,3.4-7.2,10.2v2.8c0,3.7,0.6,6.5,1.8,8.5s3,3,5.5,3c2.3,0,4.1-1,5.3-2.9s1.9-4.8,1.9-8.4
		L174.6,30.5L174.6,30.5z"/>
	<path class="st2" d="M211.7,34.2h-14.3v9h16.9v7h-26V12.5h26v7h-16.9v7.9h14.3V34.2z"/>
	<path class="st2" d="M233.9,39.9l7.5-27.4h10.1l-12.7,37.7H229l-12.6-37.7h10.1L233.9,39.9z"/>
	<path class="st2" d="M272.3,40.1c0-1.3-0.5-2.4-1.4-3.1s-2.6-1.5-5-2.3s-4.3-1.6-5.8-2.3c-4.9-2.4-7.3-5.7-7.3-9.9
		c0-2.1,0.6-3.9,1.8-5.5s2.9-2.8,5.2-3.7s4.7-1.3,7.5-1.3c2.7,0,5.1,0.5,7.3,1.4c2.1,1,3.8,2.3,5,4.1s1.8,3.8,1.8,6.1h-9.1
		c0-1.5-0.5-2.7-1.4-3.6c-0.9-0.8-2.2-1.3-3.8-1.3c-1.6,0-2.9,0.4-3.8,1.1s-1.4,1.6-1.4,2.7c0,1,0.5,1.8,1.6,2.6s2.9,1.6,5.5,2.4
		s4.7,1.7,6.4,2.7c4.1,2.3,6.1,5.6,6.1,9.7c0,3.3-1.2,5.9-3.7,7.8s-5.9,2.8-10.2,2.8c-3.1,0-5.8-0.5-8.3-1.6s-4.3-2.6-5.6-4.5
		s-1.9-4.1-1.9-6.6h9.1c0,2,0.5,3.5,1.6,4.5c1,1,2.7,1.4,5.1,1.4c1.5,0,2.7-0.3,3.6-1C271.9,42.2,272.3,41.3,272.3,40.1z"/>
	<path class="st2" d="M298.9,36.1l-3.7,4.1v9.9h-9.1V12.5h9.1v16.6l3.2-4.8l8.1-11.8h11.2L305,29.1l12.7,21H307L298.9,36.1z"/>
	<rect x="15.1" y="12.5" class="st3" width="9.2" height="37.7"/>
	<path class="st2" d="M44.4,21.1c-1.5-2.8-3.6-4.9-6.2-6.4c-2.7-1.5-5.7-2.3-9-2.3h-1.1v7h1.1c2.7,0,4.7,0.9,6.1,2.8
		c1.4,1.8,2.1,4.6,2.1,8.2V32c0,3.7-0.7,6.4-2.1,8.3c-1.4,1.9-3.4,2.8-6,2.8h-1.2v7h1.4c3.3,0,6.2-0.8,8.9-2.3
		c2.6-1.5,4.7-3.7,6.2-6.4s2.2-5.8,2.2-9.3v-1.7C46.7,27,45.9,23.9,44.4,21.1z"/>
	<g>
		<polygon class="st3" points="335.6,50.2 351.8,12.4 341.9,12.4 325.6,50.2 		"/>
		<g>
			<polygon class="st2" points="333.5,22 329.4,12.4 319.4,12.4 328.6,33.6 			"/>
		</g>
	</g>
</g>
</svg>
